<?xml version="1.0" encoding="UTF-8"?>
<svg version="1.1" xmlns="http://www.w3.org/2000/svg" width="2080" height="480">
<path d="M0 0 C1.97704402 -0.01707874 3.95379793 -0.06094985 5.93041992 -0.10522461 C18.17312458 -0.18508169 29.22621015 1.78111277 38.4440918 10.29516602 C38.9184668 10.82239258 39.3928418 11.34961914 39.8815918 11.89282227 C41.79080029 13.60633689 43.35025161 14.02135818 45.8190918 14.67016602 C50.12890903 16.00382281 52.57627968 17.71040087 55.4440918 21.29516602 C59.51558083 33.50963311 56.23716632 49.03319724 54.1315918 61.35766602 C52.17500345 72.88010465 50.7145801 84.32786618 49.8190918 95.98266602 C49.76103363 96.73442108 49.70297546 97.48617615 49.64315796 98.26071167 C48.91558407 107.82809878 48.30575722 117.40291143 47.7019043 126.97875977 C47.60672012 128.46852577 47.60672012 128.46852577 47.50961304 129.98838806 C47.20053372 134.82657748 46.90005296 139.66484524 46.62133789 144.50488281 C45.03469835 170.84528821 42.05907033 200.81648463 21.6315918 219.85375977 C10.04838459 229.24104566 -4.68911837 233.36805259 -19.3059082 234.54516602 C-20.78148193 234.66637817 -20.78148193 234.66637817 -22.28686523 234.79003906 C-40.35545898 236.08311317 -67.25969177 237.69965684 -81.9934082 225.23266602 C-85.29676311 221.13650593 -85.05045969 216.31133105 -84.5559082 211.29516602 C-82.92384089 207.5414112 -81.04611029 205.39755509 -77.5559082 203.29516602 C-69.86751452 202.2987033 -62.40688116 203.2120867 -54.8684082 204.79516602 C-46.9932189 206.39914503 -39.20520816 206.66553023 -31.1809082 206.73266602 C-30.00439697 206.75458008 -28.82788574 206.77649414 -27.61572266 206.79907227 C-16.47692055 206.77390872 -6.76951401 204.09266404 1.4440918 196.29516602 C17.92992548 178.52015577 18.96000943 150.1961763 18.4440918 127.29516602 C17.73446289 128.43791992 17.73446289 128.43791992 17.01049805 129.60375977 C8.6143538 142.71352885 -0.46030046 152.33793693 -16.1809082 155.79516602 C-31.30689242 157.71812862 -46.83351186 154.16505364 -59.3684082 145.54516602 C-74.11343046 134.00558338 -81.74147508 118.19754252 -84.2434082 99.79516602 C-86.45638856 73.97706184 -81.02754732 47.54598176 -64.1809082 27.35766602 C-47.54502315 8.35457447 -24.8941718 0.14895768 0 0 Z M-23.5559082 34.29516602 C-24.76053711 34.82110352 -24.76053711 34.82110352 -25.98950195 35.35766602 C-37.54356906 41.12468738 -46.19408722 50.7654955 -50.8059082 62.73266602 C-55.74027934 77.63857882 -57.26707864 94.9732635 -50.48950195 109.59594727 C-46.818765 116.02882291 -41.29198666 121.52903088 -34.09887695 123.81079102 C-23.34536003 125.85907995 -14.44920782 125.00563986 -4.80981445 119.53344727 C10.76013521 108.8232658 18.39720465 94.2418581 21.85153198 76.16271973 C22.6170492 71.79501973 23.26818755 67.41304824 23.88208008 63.02172852 C24.19797742 60.76743761 24.52905166 58.51573672 24.86206055 56.26391602 C25.78069931 49.90061957 26.57104669 43.74280962 26.4440918 37.29516602 C24.52997623 36.31102169 22.6126951 35.33303253 20.6940918 34.35766602 C19.62674805 33.81239258 18.5594043 33.26711914 17.4597168 32.70532227 C5.45370569 27.09111241 -11.7412582 29.12731911 -23.5559082 34.29516602 Z " fill="#BEA0E3" transform="translate(540.555908203125,163.704833984375)"/>
<path d="M0 0 C18.68141379 14.6912089 30.04960762 34.11018336 32.96875 57.68945312 C37.07722495 99.67518395 23.23966882 148.12381712 -3.42993164 180.85375977 C-14.2580422 193.64264945 -27.0375789 202.30741963 -41.80859375 209.96484375 C-42.65518555 210.40860352 -43.50177734 210.85236328 -44.37402344 211.30957031 C-85.00801947 232.5131016 -85.00801947 232.5131016 -98.74609375 229.08984375 C-102.81255278 227.40411164 -104.95094549 225.07790157 -106.99609375 221.21484375 C-108.38499604 217.36865279 -108.60405819 213.97190294 -107.80859375 209.96484375 C-104.95497394 204.14784953 -100.7284607 201.12960326 -94.7668457 198.75146484 C-93.70425537 198.41711426 -92.64166504 198.08276367 -91.546875 197.73828125 C-90.35441162 197.35148193 -89.16194824 196.96468262 -87.93334961 196.56616211 C-87.31072235 196.36666962 -86.68809509 196.16717712 -86.04660034 195.9616394 C-51.21280112 184.71290877 -29.4307625 167.20415034 -12.61816406 134.48413086 C-11.34226581 131.98068899 -10.07174296 129.47473764 -8.80859375 126.96484375 C-9.71738281 127.3515625 -10.62617187 127.73828125 -11.5625 128.13671875 C-34.30316497 137.6331227 -56.14652206 141.4438036 -79.83447266 132.171875 C-90.19778502 127.82080963 -98.05487642 122.03553695 -105.80859375 113.96484375 C-106.4221875 113.35898438 -107.03578125 112.753125 -107.66796875 112.12890625 C-120.5444561 98.52230879 -122.24294603 79.212547 -122.01953125 61.46484375 C-121.40128863 39.48288394 -113.82158821 20.96938001 -97.8828125 5.57421875 C-72.46587265 -16.87617882 -27.18984295 -19.70223669 0 0 Z M-81.62109375 27.83984375 C-89.1237103 37.00585797 -92.11196412 48.26991003 -92.80859375 59.96484375 C-92.86144531 60.65835938 -92.91429687 61.351875 -92.96875 62.06640625 C-93.43975327 73.32952798 -90.22939666 84.42903981 -83.0234375 93.1171875 C-73.69308436 103.07822058 -61.28495648 107.94880206 -47.7265625 108.44018555 C-33.06984472 108.58588717 -22.92528817 104.12003209 -10.80859375 95.96484375 C-9.66965461 95.2532916 -8.5303314 94.54235383 -7.390625 93.83203125 C-0.37029748 89.22365552 -0.37029748 89.22365552 2.94140625 81.83984375 C3.0888168 79.88528906 3.16653382 77.92479152 3.19140625 75.96484375 C3.26617188 74.7840625 3.3409375 73.60328125 3.41796875 72.38671875 C4.04367403 56.38183641 -1.3972525 42.53261625 -12.12109375 30.71484375 C-19.85345249 22.49847677 -28.78505435 14.16292316 -40.60546875 13.43359375 C-42.25645772 13.4167856 -43.9079332 13.42787307 -45.55859375 13.46484375 C-46.86630737 13.48297119 -46.86630737 13.48297119 -48.20043945 13.50146484 C-61.4144197 13.90421847 -72.55395994 18.06344154 -81.62109375 27.83984375 Z " fill="#BAA8E6" transform="translate(746.80859375,100.03515625)"/>
<path d="M0 0 C4.03297602 2.23115776 6.53820819 4.61462458 8 9 C8.07051114 11.73865287 8.09357765 14.45027588 8.0625 17.1875 C8.05798828 17.93708984 8.05347656 18.68667969 8.04882812 19.45898438 C8.03706354 21.30602383 8.01912865 23.15302213 8 25 C9.30710937 24.22076172 9.30710937 24.22076172 10.640625 23.42578125 C29.2900368 12.4490294 47.01253838 6.92537759 68.81640625 10.65234375 C80.7897409 14.2896149 90.58596224 22.53495045 96.91015625 33.23046875 C109.97201034 58.21715778 114.32066416 92.83253028 106 120 C103.22260843 128.84085448 99.42480633 136.48782254 94 144 C93.23429687 145.06154297 93.23429687 145.06154297 92.453125 146.14453125 C82.6815396 158.40738718 67.80896891 165.47301575 52.5 167.4375 C40.42601272 168.69791408 27.87421315 167.71848731 16.18530273 164.44995117 C15.20979965 164.17873947 14.23429657 163.90752777 13.22923279 163.62809753 C12.49358597 163.42082535 11.75793915 163.21355316 11 163 C11.00888245 163.90931274 11.01776489 164.81862549 11.0269165 165.75549316 C11.10724144 174.34717726 11.16805522 182.93873427 11.20724869 191.53070831 C11.22807628 195.94739368 11.25630492 200.3637674 11.30175781 204.78027344 C11.34538889 209.04671774 11.36917339 213.31286327 11.37950897 217.57951355 C11.38686951 219.20294392 11.40124281 220.82635893 11.42292023 222.44966125 C11.62644402 238.32964715 11.62644402 238.32964715 7 245 C2.56943425 248.67395025 -1.57010117 248.5043921 -7.1171875 248.34765625 C-11.05789611 247.87242174 -13.16257774 246.76466785 -16 244 C-18.53341334 239.72081595 -19.37530302 236.59268629 -19.37854004 231.6411438 C-19.38674271 230.3812413 -19.39494537 229.12133881 -19.40339661 227.82325745 C-19.39743755 226.43832287 -19.39121843 225.05338939 -19.38476562 223.66845703 C-19.38887521 222.19867025 -19.39433836 220.72888672 -19.40104675 219.2591095 C-19.41276924 216.09168501 -19.41525564 212.92443479 -19.41069031 209.75699234 C-19.40382291 204.69409783 -19.41986363 199.63142633 -19.43908691 194.568573 C-19.47694702 183.7540609 -19.48965078 172.93956802 -19.5 162.125 C-19.513629 148.0233591 -19.53841018 133.92185761 -19.59375 119.8203125 C-19.59685936 118.96576005 -19.59996872 118.1112076 -19.6031723 117.23075962 C-19.70172354 91.27081987 -20.51520063 65.51031341 -22.54956818 39.61945534 C-23.58267339 25.89690414 -24.42672816 13.03616955 -15 2 C-10.37574029 -0.92474546 -5.27915965 -0.87117303 0 0 Z M20 52 C19.03964844 52.60070312 18.07929687 53.20140625 17.08984375 53.8203125 C14.01624276 56.02500519 12.1247434 57.86044991 10 61 C9.66239539 63.77598597 9.57147984 66.0509413 9.703125 68.8046875 C9.72186172 69.58051682 9.74059845 70.35634613 9.75990295 71.15568542 C9.80201324 72.85908262 9.85321273 74.56227309 9.91226196 76.26516724 C10.00343904 79.10719642 10.05420394 81.9475827 10.09448242 84.79077148 C10.16725969 89.91563606 10.26441466 95.03958076 10.37231445 100.16381836 C10.43834423 103.35327929 10.4975335 106.54282601 10.55664062 109.73242188 C10.59854271 111.77605023 10.64084524 113.81967042 10.68359375 115.86328125 C10.70030624 116.80907547 10.71701874 117.75486969 10.73423767 118.72932434 C10.82915077 122.92886335 10.94674091 126.90637226 12 131 C14.04009755 131.65077296 16.08215669 132.29539824 18.125 132.9375 C19.26195312 133.29714844 20.39890625 133.65679687 21.5703125 134.02734375 C32.79588574 137.21090609 49.31424689 138.76250382 60 133.32421875 C69.93594746 126.74553479 75.22652718 118.9484948 78.2734375 107.4296875 C81.5257155 90.61438154 80.90276831 67.15704283 72 52 C71.63003906 51.35675781 71.26007813 50.71351563 70.87890625 50.05078125 C68.08478792 45.6809634 64.85337679 43.00127488 60 41 C57.24514717 40.46502734 54.61216657 40.42612258 51.8125 40.5 C51.0685498 40.51281006 50.32459961 40.52562012 49.55810547 40.53881836 C38.08715402 40.9554718 29.19177709 45.35630625 20 52 Z " fill="#C78EDD" transform="translate(33,153)"/>
<path d="M0 0 C1.52947266 -0.02513672 1.52947266 -0.02513672 3.08984375 -0.05078125 C6.49020759 0.36476913 8.3251609 1.28342346 11.0625 3.3125 C17.70959702 13.62696089 13.7717631 31.02934094 13.00845337 42.79095459 C12.80634666 45.90738279 12.61135051 49.02420819 12.41674805 52.14111328 C11.70698835 63.34059072 10.90390279 74.52766981 9.97265625 85.7109375 C6.35178965 129.58116753 3.97101182 174.55595122 10.6340332 218.27636719 C11.53492198 224.66010103 11.85776915 229.74610524 8.0625 235.3125 C4.23178933 238.46219544 1.05963831 240.21051759 -3.9375 240.3125 C-11.1488204 238.16175532 -13.89586463 234.37495305 -17.9375 228.3125 C-19.27941406 229.10914063 -19.27941406 229.10914063 -20.6484375 229.921875 C-41.11634752 241.93675973 -60.96368478 246.067087 -84.3671875 240.49609375 C-101.72883629 235.10721835 -116.594014 223.22337305 -125.6171875 207.359375 C-136.78832052 184.79479785 -137.39062028 157.23596635 -129.9375 133.3125 C-126.69006247 123.8151987 -122.28120237 115.13551112 -115.9375 107.3125 C-115.28265625 106.48363281 -114.6278125 105.65476562 -113.953125 104.80078125 C-103.16106579 91.94090047 -88.5629567 83.85483274 -71.9375 81.3125 C-55.25721351 80.09751286 -39.2759107 79.35706697 -25.58984375 89.97265625 C-25.04259644 90.39035278 -24.49534912 90.80804932 -23.93151855 91.23840332 C-22.59656642 92.25839133 -21.26651457 93.28478749 -19.9375 94.3125 C-19.86233154 92.98134155 -19.86233154 92.98134155 -19.78564453 91.62329102 C-19.31638238 83.32714051 -18.84259116 75.03126473 -18.36383057 66.73565674 C-18.13237847 62.72058541 -17.90276644 58.70543282 -17.67871094 54.68994141 C-16.09174995 26.27093306 -16.09174995 26.27093306 -15.0625 16.1875 C-14.88074219 14.38925781 -14.88074219 14.38925781 -14.6953125 12.5546875 C-13.61991831 7.95377423 -11.95297321 3.8335328 -8.05859375 0.89453125 C-5.31501169 0.14168829 -2.8455194 0.01076489 0 0 Z M-95.1875 123.4375 C-106.96346251 137.48437376 -108.31176302 157.72990005 -106.9375 175.3125 C-106.3643873 178.92888557 -105.47398072 181.99693635 -103.9375 185.3125 C-103.44443359 186.42044922 -103.44443359 186.42044922 -102.94140625 187.55078125 C-97.13086323 199.19197297 -87.85759728 207.47935616 -75.7109375 211.9453125 C-66.03917437 215.05352185 -52.98407355 214.98407269 -43.62890625 210.9140625 C-37.63898801 207.34966994 -32.10994489 202.9785359 -26.9375 198.3125 C-26.0609375 197.71469727 -25.184375 197.11689453 -24.28125 196.50097656 C-20.46926096 191.31508314 -21.22483622 185.81081681 -21.2734375 179.54296875 C-21.27006527 178.17922026 -21.26520926 176.81547471 -21.25894165 175.45173645 C-21.25158168 172.59603204 -21.26224056 169.7411111 -21.28564453 166.88549805 C-21.31405285 163.24365241 -21.2977769 159.60365576 -21.26778221 155.96187878 C-21.24961448 153.14515041 -21.25551129 150.32885189 -21.26842117 147.51210976 C-21.27333357 145.52256179 -21.2582661 143.53299647 -21.24276733 141.54350281 C-21.33949331 134.02832727 -22.11656669 129.15863356 -26.9375 123.3125 C-28.0203125 121.765625 -28.0203125 121.765625 -29.125 120.1875 C-34.56861179 113.90244664 -43.07242153 109.86242783 -51.27050781 109.09375 C-68.55038668 108.29096817 -82.70758801 110.5617699 -95.1875 123.4375 Z " fill="#A5D5F6" transform="translate(1584.9375,79.6875)"/>
<path d="M0 0 C1.1034375 -0.01933594 2.206875 -0.03867188 3.34375 -0.05859375 C7.15781613 0.54089437 8.76620636 1.76197549 11.5 4.4375 C18.26542476 15.96377923 16.78989223 31.82374282 16.6875 44.75 C16.68063012 46.53279488 16.67412324 48.31559118 16.66796875 50.09838867 C16.61489705 60.80807566 16.36701554 71.49639507 15.8605957 82.19506836 C15.5589087 88.57006103 15.38963149 94.93012357 15.375 101.3125 C15.37048828 102.09858643 15.36597656 102.88467285 15.36132812 103.69458008 C15.36990979 106.87659048 15.48635548 109.39656643 16.5 112.4375 C17.16644531 111.6640625 17.83289063 110.890625 18.51953125 110.09375 C29.56467989 97.51179699 43.73394978 85.67477845 61.11645508 84.21826172 C75.06692958 83.63875995 87.55200881 83.54426238 98.7890625 92.83203125 C107.30730605 100.8251776 109.28356789 112.03245614 110.55859375 123.26953125 C110.68507797 124.36735176 110.68507797 124.36735176 110.81411743 125.48735046 C111.6430102 133.08825982 111.97486944 140.69526524 112.27658081 148.33197021 C112.85522246 162.54843299 113.84725327 176.67300078 115.4375 190.8125 C115.5169989 191.53337799 115.5964978 192.25425598 115.67840576 192.99697876 C116.64110067 201.6256739 117.88663891 210.16300184 119.49961853 218.69552612 C120.82110481 225.77606095 122.0107468 232.30409923 118.8125 238.9375 C115.50436802 242.5138589 112.95211421 244.04654617 108.25 245.3125 C103.59911326 245.46752956 99.52494982 244.87032549 95.5 242.4375 C85.3361747 229.75586006 85.37299822 206.95862118 83.5 191.4375 C83.38889893 190.51791504 83.27779785 189.59833008 83.16333008 188.65087891 C82.04786607 177.69040141 82.46498512 166.6287501 82.59594727 155.62792969 C83.49322268 135.73591854 83.49322268 135.73591854 76.28125 117.8125 C72.29803215 114.73773534 66.24604098 115.95475983 61.5 116.4375 C44.71843819 120.63882453 34.87969454 133.66250068 26.39306641 147.75292969 C25.07828766 149.97238167 23.77802284 152.19661006 22.5 154.4375 C22.08948898 155.07340057 21.67897797 155.70930115 21.25602722 156.36447144 C17.67770481 162.1878187 16.73388851 166.78785464 16.64453125 173.5625 C16.59567024 174.98115356 16.59567024 174.98115356 16.54582214 176.4284668 C16.4460441 179.43129297 16.37763068 182.43374091 16.3125 185.4375 C16.20463556 189.37535715 16.08444503 193.31272891 15.95703125 197.25 C15.92610382 198.20608154 15.89517639 199.16216309 15.86331177 200.1472168 C14.86521058 227.7003661 14.86521058 227.7003661 8.3125 236.3125 C4.21634601 239.4073719 0.58469695 240.51402874 -4.546875 240.38671875 C-9.82897466 239.53707869 -12.96524197 236.83627393 -16.21484375 232.68359375 C-18.97660609 227.85680546 -17.76186349 223.31737917 -17.02200508 218.00604534 C-15.72534128 208.51305054 -15.16868891 199.18774157 -15.08935547 189.59887695 C-15.07012502 188.09052548 -15.05010108 186.58218396 -15.02935791 185.07385254 C-14.97597239 181.03073254 -14.93355814 176.98756771 -14.89335394 172.94429803 C-14.84908675 168.68358657 -14.79455971 164.42300536 -14.74124146 160.16239929 C-14.65317838 153.01547016 -14.57152597 145.86849323 -14.49462891 138.72143555 C-14.38657308 128.67846388 -14.26745761 118.63564664 -14.14583755 108.59283125 C-13.9828952 95.09777391 -13.82366843 81.6026657 -13.67621613 68.1074295 C-13.660329 66.65995968 -13.64421266 65.21249235 -13.62783432 63.765028 C-13.55053819 56.90953177 -13.4869419 50.05407417 -13.46316528 43.19816589 C-13.45945986 42.17302981 -13.45575443 41.14789373 -13.45193672 40.09169292 C-13.50824608 36.98212787 -13.8911819 34.04831841 -14.5 31 C-17.46505291 13.27414021 -17.46505291 13.27414021 -13.8125 6.25 C-9.77270291 1.33673327 -6.31587906 0.00737836 0 0 Z " fill="#B2BAED" transform="translate(986.5,78.5625)"/>
<path d="M0 0 C7.52160313 5.68298903 11.60438748 13.75832196 13 23 C13.96340097 31.74359369 12.21676284 39.43513323 7.1171875 46.671875 C1.86728269 52.88143983 -3.92807301 57.08142928 -11 61 C-11.93803467 61.5244873 -11.93803467 61.5244873 -12.89501953 62.05957031 C-23.97783197 68.21051799 -35.40154435 73.58454291 -46.91357422 78.87670898 C-56.0066221 83.05877224 -65.04773159 87.33933672 -74.0625 91.6875 C-74.69540955 91.99167847 -75.32831909 92.29585693 -75.98040771 92.60925293 C-77.77069833 93.4700675 -79.55921826 94.33456174 -81.34765625 95.19921875 C-82.36867432 95.69252686 -83.38969238 96.18583496 -84.44165039 96.6940918 C-87.13690108 98.00765556 -87.13690108 98.00765556 -90 100 C-81.3634227 111.43434177 -69.14184855 118.7565912 -55 121 C-38.4663353 122.63655054 -20.78296273 121.17295957 -6 113 C-4.989375 112.443125 -3.97875 111.88625 -2.9375 111.3125 C0.5998558 108.5277731 3.36701467 105.35805046 6.265625 101.92578125 C8.23129274 99.74318171 9.24699213 99.10875251 12.13671875 98.69140625 C17.09743834 98.44071139 20.18750897 98.57080641 24.0625 101.875 C27.23879267 104.96908275 28.1925772 107.06572277 28.375 111.5 C28.2523058 118.59581464 25.85850084 123.9568993 21.00390625 129.125 C1.432213 146.02332537 -27.65018712 152.41842036 -52.82666016 150.67285156 C-73.67793789 148.82318176 -93.26582894 140.83237707 -107.08203125 124.64453125 C-121.25676081 105.10014853 -121.85108324 81.38610926 -118.39794922 58.32324219 C-114.64405911 36.40789354 -104.30510996 15.3772853 -87 1 C-61.7797388 -16.57663885 -25.92947399 -15.98253664 0 0 Z M-65 21 C-66.051875 21.598125 -67.10375 22.19625 -68.1875 22.8125 C-81.83083596 33.42398353 -88.94377614 49.48051847 -93 66 C-93 67.32 -93 68.64 -93 70 C-88.93453137 68.71764919 -85.14785571 67.21303108 -81.31640625 65.34765625 C-80.23512451 64.82389404 -79.15384277 64.30013184 -78.03979492 63.76049805 C-76.31853394 62.91998901 -76.31853394 62.91998901 -74.5625 62.0625 C-72.74769948 61.18025083 -70.93237195 60.29909349 -69.11695862 59.41810608 C-67.88485499 58.82016099 -66.65295278 58.2218007 -65.42124939 57.62303162 C-61.4930086 55.71560409 -57.55260859 53.83624271 -53.6015625 51.9765625 C-38.86891145 45.03932588 -24.97930408 37.95962925 -12 28 C-14.83827438 24.88320337 -17.40218592 23.07903195 -21.25 21.375 C-22.14203125 20.97023437 -23.0340625 20.56546875 -23.953125 20.1484375 C-31.01727106 17.48579783 -37.37857213 16.6107401 -44.875 16.625 C-45.75687988 16.62661133 -46.63875977 16.62822266 -47.54736328 16.62988281 C-54.05075704 16.75256566 -59.33565533 17.62475132 -65 21 Z " fill="#A2DCF9" transform="translate(1745,172)"/>
<path d="M0 0 C0.6300293 0.26232422 1.26005859 0.52464844 1.90917969 0.79492188 C9.6603398 4.07138793 16.38434813 7.70378056 21 15 C22.58397042 19.75191126 22.66817181 23.54662171 20.55737305 28.13793945 C18.60457668 32.51420841 18.21305836 36.80237849 17.83203125 41.54296875 C17.75265823 42.45596237 17.67328522 43.36895599 17.59150696 44.30961609 C16.83811239 53.70274916 16.66214261 63.08435228 16.68432617 72.50415039 C16.68751901 75.32932073 16.66376714 78.15347078 16.63867188 80.97851562 C16.57737193 97.36969342 18.8068973 111.38085061 25.0625 126.6875 C25.50916016 127.81349609 25.95582031 128.93949219 26.41601562 130.09960938 C27.96070403 133.98557437 29.52559279 137.86230027 31.13500977 141.72192383 C32.50659597 145.33419334 31.99735488 148.3306272 31 152 C28.51425176 156.66077796 25.25045827 158.04291684 20.51171875 159.8125 C15.41760113 160.19277628 11.44956521 157.56806307 7.7265625 154.37109375 C6.68376014 153.40277727 5.64988419 152.42476186 4.625 151.4375 C4.09261719 150.94314453 3.56023437 150.44878906 3.01171875 149.93945312 C-0.84183673 146.31632653 -0.84183673 146.31632653 -2 144 C-7.11473277 145.56938541 -11.842019 147.70383277 -16.6875 149.9375 C-29.6751862 155.80277955 -41.53886549 158.83297342 -55.8125 157.3125 C-56.68688721 157.22073486 -57.56127441 157.12896973 -58.4621582 157.03442383 C-73.71009177 155.25589786 -86.5369835 149.38265145 -97 138 C-112.01380708 117.94271987 -113.71909687 88.41923466 -110.27905273 64.43408203 C-106.35736403 42.22706422 -92.58388992 22.82757588 -75.06640625 9.09765625 C-53.08814817 -5.93715214 -24.85920825 -10.72358003 0 0 Z M-65 40 C-78.17202493 57.03673364 -83.19908098 74.77322179 -80.53515625 96.16015625 C-78.83071994 107.58910738 -75.33973437 117.92529089 -66.3203125 125.59765625 C-59.82051028 129.52598789 -53.77339481 130.52917829 -46.25 130.4375 C-44.93056396 130.42505249 -44.93056396 130.42505249 -43.58447266 130.41235352 C-31.71119735 130.10553079 -23.26029189 126.31835893 -14 119 C-13.07960938 118.40058594 -12.15921875 117.80117188 -11.2109375 117.18359375 C-8.70940077 115.16860267 -8.70940077 115.16860267 -8.66015625 112.06640625 C-8.79292969 110.91011719 -8.92570312 109.75382812 -9.0625 108.5625 C-9.12687256 107.90185547 -9.19124512 107.24121094 -9.25756836 106.56054688 C-9.54670476 103.659155 -9.90406537 100.76765336 -10.265625 97.87451172 C-11.85857202 84.92303256 -12.19345564 72.09648417 -12.1875 59.0625 C-12.1887236 57.80675171 -12.1887236 57.80675171 -12.18997192 56.52563477 C-12.1888454 46.30276816 -11.90357015 36.18881921 -11 26 C-30.07254043 16.59679402 -51.81807387 23.96395147 -65 40 Z " fill="#ADC4F0" transform="translate(1241,166)"/>
<path d="M0 0 C3.28267751 1.36251238 5.08652013 3.01474694 7 6 C10.35319172 14.22716185 10.62348996 23.22342115 11 32 C11.73863281 31.16597656 12.47726562 30.33195312 13.23828125 29.47265625 C23.7721904 17.71986086 36.27028663 4.28833903 53.02368164 2.82299805 C64.63452466 2.48997078 75.13231198 2.2655482 84.8125 9.625 C98.6292411 22.84676182 100.60389609 44.42874915 101.06338501 62.49172974 C101.11094642 65.32909032 101.14630391 68.16630023 101.17578125 71.00390625 C101.18631027 72.00525101 101.19683929 73.00659576 101.20768738 74.0382843 C101.21842789 75.06447372 101.2291684 76.09066315 101.24023438 77.14794922 C101.4469415 96.50964028 102.11784862 115.19558412 105.55981445 134.28100586 C109.35831002 157.74403697 109.35831002 157.74403697 104.1953125 166.4453125 C101.54203355 169.8963093 98.81681017 170.79965033 94.6875 171.8125 C90.5198022 172.02441684 86.73709363 171.98578897 83 170 C78.76860272 165.63453946 77.28416341 162.67672109 76.32421875 156.53515625 C76.21019211 155.83415298 76.09616547 155.13314972 75.97868347 154.41090393 C75.74688357 152.96796044 75.52378675 151.52359133 75.30950928 150.07794189 C75.02718759 148.18252841 74.71371947 146.29182088 74.39697266 144.40185547 C70.80288165 122.33718098 70.65492931 100.46402096 70.97192383 78.15209961 C71.93638003 56.2583626 71.93638003 56.2583626 65 36 C63.38822832 34.38822832 61.66185056 34.79075146 59.4375 34.75 C49.01310188 34.91288122 42.26160417 39.9074833 34.93359375 47 C12.37904362 71.01110621 6.26761676 102.5280956 6.90722656 134.26171875 C6.99904414 136.97178707 7.15220752 139.66970021 7.3359375 142.375 C7.39289795 143.22843994 7.4498584 144.08187988 7.50854492 144.96118164 C7.62394798 146.55808915 7.75571426 148.15393905 7.9074707 149.74780273 C8.31117325 155.03967522 7.52653085 158.30286991 5 163 C1.95531652 166.18307818 -0.12493083 167.75692523 -4.375 168.9375 C-9.21334778 169.02091979 -13.80587806 168.94491303 -17.58203125 165.59765625 C-32.57561399 147.92510484 -23.98788137 102.73449749 -22.28210449 80.75482178 C-20.88582586 62.5209961 -20.80799206 44.38589497 -21.19921875 26.10766602 C-21.21371567 25.08265488 -21.22821259 24.05764374 -21.2431488 23.00157166 C-21.27025657 21.08983879 -21.31355717 19.17823457 -21.37660217 17.26734924 C-21.44538236 11.29189935 -20.48663042 7.89422415 -17 3 C-11.86234901 -1.10169842 -6.29093118 -0.97488602 0 0 Z " fill="#A9CCF3" transform="translate(1320,154)"/>
<path d="M0 0 C3.28267751 1.36251238 5.08652013 3.01474694 7 6 C10.35319172 14.22716185 10.62348996 23.22342115 11 32 C11.73863281 31.16597656 12.47726562 30.33195312 13.23828125 29.47265625 C23.7721904 17.71986086 36.27028663 4.28833903 53.02368164 2.82299805 C64.63452466 2.48997078 75.13231198 2.2655482 84.8125 9.625 C98.6292411 22.84676182 100.60389609 44.42874915 101.06338501 62.49172974 C101.11094642 65.32909032 101.14630391 68.16630023 101.17578125 71.00390625 C101.18631027 72.00525101 101.19683929 73.00659576 101.20768738 74.0382843 C101.21842789 75.06447372 101.2291684 76.09066315 101.24023438 77.14794922 C101.4469415 96.50964028 102.11784862 115.19558412 105.55981445 134.28100586 C109.35831002 157.74403697 109.35831002 157.74403697 104.1953125 166.4453125 C101.54203355 169.8963093 98.81681017 170.79965033 94.6875 171.8125 C90.5198022 172.02441684 86.73709363 171.98578897 83 170 C78.76860272 165.63453946 77.28416341 162.67672109 76.32421875 156.53515625 C76.21019211 155.83415298 76.09616547 155.13314972 75.97868347 154.41090393 C75.74688357 152.96796044 75.52378675 151.52359133 75.30950928 150.07794189 C75.02718759 148.18252841 74.71371947 146.29182088 74.39697266 144.40185547 C70.80288165 122.33718098 70.65492931 100.46402096 70.97192383 78.15209961 C71.93638003 56.2583626 71.93638003 56.2583626 65 36 C63.38822832 34.38822832 61.66185056 34.79075146 59.4375 34.75 C49.01310188 34.91288122 42.26160417 39.9074833 34.93359375 47 C12.37904362 71.01110621 6.26761676 102.5280956 6.90722656 134.26171875 C6.99904414 136.97178707 7.15220752 139.66970021 7.3359375 142.375 C7.39289795 143.22843994 7.4498584 144.08187988 7.50854492 144.96118164 C7.62394798 146.55808915 7.75571426 148.15393905 7.9074707 149.74780273 C8.31117325 155.03967522 7.52653085 158.30286991 5 163 C1.95531652 166.18307818 -0.12493083 167.75692523 -4.375 168.9375 C-9.21334778 169.02091979 -13.80587806 168.94491303 -17.58203125 165.59765625 C-32.57561399 147.92510484 -23.98788137 102.73449749 -22.28210449 80.75482178 C-20.88582586 62.5209961 -20.80799206 44.38589497 -21.19921875 26.10766602 C-21.21371567 25.08265488 -21.22821259 24.05764374 -21.2431488 23.00157166 C-21.27025657 21.08983879 -21.31355717 19.17823457 -21.37660217 17.26734924 C-21.44538236 11.29189935 -20.48663042 7.89422415 -17 3 C-11.86234901 -1.10169842 -6.29093118 -0.97488602 0 0 Z " fill="#C299E1" transform="translate(332,154)"/>
<path d="M0 0 C6.40783882 5.0728724 6.72636013 12.55351333 7.90625 20.07421875 C8.08800781 21.15638672 8.26976562 22.23855469 8.45703125 23.35351562 C11.38049053 41.67459313 11.38049053 41.67459313 8.09375 48.01171875 C5.05652658 51.95190049 2.7019871 53.45683914 -2.03125 54.82421875 C-7.07241404 55.12075781 -11.31701309 54.29667612 -15.53125 51.44921875 C-19.14261075 46.23280878 -20.26527857 40.19591662 -21.21875 34.01171875 C-51.56207042 40.19418887 -51.56207042 40.19418887 -75.03125 58.57421875 C-76.51072962 61.15914925 -76.51072962 61.15914925 -76.21875 65.01171875 C-74.84493164 65.32810303 -74.84493164 65.32810303 -73.44335938 65.65087891 C-16.19773502 78.9251222 -16.19773502 78.9251222 -2.40625 99.26171875 C5.14639179 112.0188492 7.58350151 126.5015813 4.6328125 141.09765625 C0.83771185 154.08456032 -6.14843117 161.8731985 -17.75390625 168.37109375 C-41.40841276 179.57164926 -70.75161701 179.72604009 -95.21875 171.01171875 C-96.26417969 170.66367187 -97.30960938 170.315625 -98.38671875 169.95703125 C-106.38232118 167.01821667 -113.74186369 162.39705369 -118.45703125 155.09375 C-120.13347723 150.51146431 -120.03962787 145.77281037 -119.21875 141.01171875 C-116.9692837 137.21170649 -114.20518859 134.00493805 -110.21875 132.01171875 C-105.17454401 131.14877698 -100.90330869 130.99578574 -96.43359375 133.69140625 C-94.60777609 135.12578962 -92.79276001 136.57401894 -90.98828125 138.03515625 C-86.73026792 141.07402049 -82.30286884 142.08941233 -77.21875 143.01171875 C-76.36152344 143.19347656 -75.50429687 143.37523437 -74.62109375 143.5625 C-59.79109895 145.52053605 -40.79502422 146.37702934 -28.21875 137.01171875 C-25.63062103 133.45304142 -25.21009608 131.54826151 -25.28125 127.13671875 C-26.42747974 120.88021476 -28.7259572 115.88280915 -33.71875 111.82421875 C-43.13364202 105.57553681 -53.74955127 102.91245602 -64.65625 100.51171875 C-95.03970116 93.80264184 -95.03970116 93.80264184 -104.21875 81.01171875 C-110.21277012 70.2638206 -108.45992673 57.71782837 -105.5078125 46.25 C-101.54738774 34.67756617 -91.47763672 26.31602705 -81.03125 20.57421875 C-67.2644311 14.01461157 -51.92118974 10.2342715 -37.36523438 5.85229492 C-32.31423057 4.32222615 -27.35903555 2.70709537 -22.43359375 0.80859375 C-15.46420158 -1.76505837 -7.0235555 -3.1284499 0 0 Z " fill="#9FE3FB" transform="translate(1904.21875,147.98828125)"/>
<path d="M0 0 C4.40268635 4.40268635 5.53602516 7.78955731 5.5390625 13.93359375 C5.49330577 18.76419658 5.05345108 23.36666317 4.30712891 28.13232422 C-0.02405183 56.24829408 0.35522646 87.38838623 5.375 115.375 C5.51470215 116.36886719 5.6544043 117.36273438 5.79833984 118.38671875 C6.80884543 123.8963251 6.80884543 123.8963251 10.42285156 127.93139648 C23.89325923 133.88538034 40.82614519 130.81002219 54.65234375 127.83984375 C56.35674622 127.48593567 56.35674622 127.48593567 58.09558105 127.12487793 C60.85730882 126.55015374 63.6168885 125.96679063 66.375 125.375 C66.37055878 124.50867447 66.36611755 123.64234894 66.36154175 122.74977112 C66.32076356 114.41600992 66.29067061 106.08228416 66.27137566 97.74844456 C66.26112131 93.46823797 66.24731808 89.18811654 66.22412109 84.90795898 C66.13127695 67.27644518 66.20144694 49.69505752 67.2578125 32.08984375 C67.31640757 31.0767171 67.31640757 31.0767171 67.37618637 30.04312325 C68.7690397 6.65066228 68.7690397 6.65066228 75.375 0.375 C79.79200482 -1.83350241 85.56720965 -1.04612032 90.375 -0.625 C95.00472539 1.53021699 97.15709785 3.83622166 99.375 8.375 C99.703125 11.66894531 99.703125 11.66894531 99.625 15.453125 C99.61331787 16.1473053 99.60163574 16.8414856 99.58959961 17.55670166 C99.42106306 25.53328954 98.96202642 33.50162562 98.51968384 41.46670532 C97.7538253 55.5379223 97.16355197 69.59398287 97.1875 83.6875 C97.18890488 84.72703323 97.18890488 84.72703323 97.19033813 85.78756714 C97.21981512 95.91385633 97.4558276 106.0334841 97.7109375 116.15625 C97.76863086 118.58031852 97.8261662 121.00439081 97.88354492 123.4284668 C97.99690338 128.20155765 98.13307563 132.9732762 98.2824707 137.74536133 C98.33873899 139.95131725 98.39435172 142.15729003 98.44921875 144.36328125 C98.50527786 145.87656006 98.50527786 145.87656006 98.56246948 147.42041016 C98.72045703 154.80563968 97.77148355 159.48693009 92.9375 165.3125 C89.08909141 168.22533056 84.87603709 168.01180877 80.21875 167.78125 C76.20660264 167.20808609 74.21838281 166.28946738 71.375 163.375 C69.77922962 160.45945726 68.50901219 157.49686886 67.375 154.375 C66.67117188 154.70113281 65.96734375 155.02726563 65.2421875 155.36328125 C45.52962303 164.08724908 21.97391706 166.45347424 1.375 159.1875 C-8.90401278 154.76573016 -15.74130486 148.53460413 -20.625 138.375 C-23.94132425 129.89972013 -24.74397141 120.96791153 -25.75 112 C-25.91979843 110.55720031 -26.09036729 109.11449107 -26.26171875 107.671875 C-26.74356021 103.57563754 -27.18855549 99.47632548 -27.625 95.375 C-27.73392578 94.40820312 -27.84285156 93.44140625 -27.95507812 92.4453125 C-28.99377134 82.0434351 -28.86696125 71.56785342 -28.875 61.125 C-28.87633942 60.10120239 -28.87767883 59.07740479 -28.87905884 58.02258301 C-28.86586733 11.58666754 -28.86586733 11.58666754 -20.25 0.25 C-14.56132636 -3.76637511 -5.97560148 -2.6787179 0 0 Z " fill="#9CE8FD" transform="translate(1970.625,159.625)"/>
<path d="M0 0 C1.53333984 -0.04253906 1.53333984 -0.04253906 3.09765625 -0.0859375 C6.6221712 0.48612958 7.73157295 1.63414837 9.9375 4.375 C11.37361992 7.24723984 11.06940831 9.73549962 11.0625 12.9375 C11.06636719 14.70287109 11.06636719 14.70287109 11.0703125 16.50390625 C10.97629874 19.24413077 10.78119147 21.76043201 10.42431641 24.45825195 C9.83505782 29.63240549 9.89896389 34.71470465 10.015625 39.9140625 C10.04697147 42.01665452 10.07625441 44.11927805 10.10375977 46.22192383 C10.12564865 47.87727646 10.12564865 47.87727646 10.14797974 49.56607056 C10.45439205 76.19034283 8.57831507 102.30881333 5.80070496 128.77133179 C3.82575705 147.77096487 3.61246712 166.24163154 5.22583008 185.27685547 C5.67974413 190.6648112 6.06181039 195.96749804 5.9375 201.375 C7.15566406 201.34019531 8.37382812 201.30539062 9.62890625 201.26953125 C11.25259028 201.24137488 12.87628935 201.21407671 14.5 201.1875 C15.29986328 201.16236328 16.09972656 201.13722656 16.92382812 201.11132812 C22.38813813 201.04441821 26.10973044 201.76072887 30.9375 204.375 C34.63262072 208.55632081 36.18791398 212.80328905 35.9375 218.375 C35.06082058 223.01128538 33.71570692 225.700554 30.125 228.8125 C25.27667625 231.18912929 20.60948762 231.50152137 15.265625 231.5078125 C14.14607422 231.50998779 13.02652344 231.51216309 11.87304688 231.5144043 C10.65681641 231.50965088 9.44058594 231.50489746 8.1875 231.5 C6.90939453 231.49589111 5.63128906 231.49178223 4.31445312 231.48754883 C-0.14471322 231.46640346 -4.60354275 231.42209545 -9.0625 231.375 C-9.93865967 231.36639954 -10.81481934 231.35779907 -11.7175293 231.34893799 C-17.39047793 231.29120666 -23.06265317 231.21230835 -28.73498535 231.11053467 C-30.61308427 231.07862896 -32.49126977 231.05145331 -34.36950684 231.02911377 C-37.0280553 230.9957831 -39.68561383 230.94358449 -42.34375 230.88671875 C-43.53263824 230.87711876 -43.53263824 230.87711876 -44.74554443 230.86732483 C-49.55611771 230.73951002 -52.87181937 229.97667445 -57.0625 227.375 C-60.52337789 223.56803432 -60.52601365 219.66954624 -60.3359375 214.7421875 C-59.95619337 211.4546883 -59.34775735 209.80308594 -57.0625 207.375 C-51.38501035 203.76205204 -45.93052087 202.23391599 -39.19921875 202.27734375 C-38.31298828 202.28056641 -37.42675781 202.28378906 -36.51367188 202.28710938 C-35.60166016 202.29548828 -34.68964844 202.30386719 -33.75 202.3125 C-32.81865234 202.31701172 -31.88730469 202.32152344 -30.92773438 202.32617188 C-28.63925627 202.33790766 -26.35091192 202.35432637 -24.0625 202.375 C-24.206875 201.12976563 -24.35125 199.88453125 -24.5 198.6015625 C-28.74443105 158.28135055 -25.0737728 117.92953215 -21.92607117 77.67541504 C-21.19078118 68.24711209 -20.54033029 58.82008184 -20.0625 49.375 C-20.57111572 49.72804199 -21.07973145 50.08108398 -21.60375977 50.44482422 C-23.93749575 52.05647203 -26.28104245 53.65325885 -28.625 55.25 C-29.42486328 55.80558594 -30.22472656 56.36117187 -31.04882812 56.93359375 C-41.14010866 63.77095118 -41.14010866 63.77095118 -47.5390625 63.125 C-52.86889344 61.26440447 -56.07846411 59.41056056 -59.0625 54.375 C-60.47409671 49.78939887 -60.45552014 46.45580538 -58.8125 41.9375 C-53.20180332 33.61752856 -44.15967578 27.57473364 -36.17578125 21.734375 C-32.79361725 19.17122938 -29.58547928 16.45954791 -26.375 13.6875 C-10.59915188 0.13399686 -10.59915188 0.13399686 0 0 Z " fill="#C493DF" transform="translate(237.0625,84.625)"/>
<path d="M0 0 C4.54326832 3.81949845 8.00315124 8.01890743 9 14 C9.06920319 19.72079673 7.65600537 23.48375807 4 28 C-0.19279548 30.79519699 -3.2667635 31.2333203 -8.25 30.5625 C-12.73734022 29.13606073 -15.95708078 25.88623122 -19.50390625 22.90625 C-28.50238202 16.03417461 -41.14476417 15.70004589 -52 17 C-64.43322177 20.93200639 -71.32876734 34.23456895 -77.02539062 45.08203125 C-85.24169868 61.2511986 -91.12928095 77.99005919 -87.30859375 96.31640625 C-84.18875841 105.70201967 -78.50742557 112.94355835 -70 118 C-58.56563713 123.46405432 -43.86544216 125.75181367 -31.5625 121.625 C-28.06762692 120.14265445 -24.78068347 118.34037729 -21.4609375 116.5078125 C-20.6352124 116.05712402 -19.8094873 115.60643555 -18.95874023 115.14208984 C-17.31761056 114.23594852 -15.68852148 113.30753082 -14.07446289 112.35400391 C-8.44036545 109.19106402 -3.47112614 107.86120833 3 109 C6.89904853 111.03015414 9.34492432 113.95508409 11 118 C11.76301689 122.79495877 11.81683401 127.47675495 9.1875 131.6875 C-1.44453333 144.29827286 -24.24270075 151.73376834 -40 153.8125 C-60.61853515 155.15791828 -80.79158491 149.01341899 -96.43994141 135.46606445 C-108.75075076 124.16181123 -116.18836735 108.53738795 -117.12109375 91.83105469 C-118.34376358 61.76560354 -108.2051259 33.18667639 -89 10 C-87.92105469 8.67548828 -87.92105469 8.67548828 -86.8203125 7.32421875 C-63.73298482 -19.74793239 -28.55961528 -18.00786931 0 0 Z " fill="#B6B1E9" transform="translate(925,171)"/>
</svg>
