<?xml version="1.0" encoding="utf-8"?>
<!-- Generator: Adobe Illustrator 25.1.0, SVG Export Plug-In . SVG Version: 6.00 Build 0)  -->
<svg version="1.1" id="레이어_1" xmlns="http://www.w3.org/2000/svg" xmlns:xlink="http://www.w3.org/1999/xlink" x="0px"
	 y="0px" viewBox="0 0 1080 1080" style="enable-background:new 0 0 1080 1080;" xml:space="preserve">
<style type="text/css">
	.st0{fill:#FE0C00;}
	.st1{fill:#FEFEFE;}
	.st2{fill:#3B0000;}
</style>
<path d="M616,229c160.6-2.2,158,82.6,257,142c174.8,129.6,207.6,264.7,34,424c-102.1,78.6-251.3,105.8-438,100
	c-195.8,14.8-356.7-30-389-187c-13.3-184.6,55.9-282.4,151-359c44.7-41.3,105.7-65.4,163-94C463.5,241.9,541.1,237.1,616,229z"/>
<path class="st0" d="M510,593c41.8-3.9,100.8,24.2,112,49c25.8,20.3,46.4,51.4,12,78c-31.9,5.8-50.6,22.2-75,37
	c-19.9,14.2-53.8,15.9-73,30c-64.1-0.4-125.3-29.3-117-94c4.7-50.4,42.4-73.4,84-87C460.4,587.5,500.3,610,510,593z"/>
<path class="st1" d="M665,418c87.4,4.4,63,142.2-6,147c-60.1,7.9-72.5-45-65-98C620.4,432.1,630.4,438.9,665,418z"/>
<path class="st1" d="M337,443c97.1,2.8,74.7,124.9-16,122C266.3,540.6,267.8,449.2,337,443z"/>
<path d="M647,473c64.1-2.8,2.5,88.8-21,53C625.4,498.2,622.5,476.6,647,473z"/>
<path d="M335,483c40.8-7.6,36.2,31.1,16,43C317,532.6,310.7,492.4,335,483z"/>
<path class="st2" d="M632,651c1.3,0,2.6,0,4,0c0,1.3,0,2.6,0,4c1.3,0,2.6,0,4,0c0,1.3,0,2.6,0,4c-1.3,0-2.6,0-4,0c0-0.7,0-1.3,0-2
	c-0.7,0-1.3,0-2,0c0-0.7,0-1.3,0-2c-0.7,0-1.3,0-2,0C632,653.7,632,652.4,632,651z"/>
</svg>
