<?xml version="1.0" encoding="UTF-8"?>
<svg version="1.1" xmlns="http://www.w3.org/2000/svg" width="1080" height="1080">
<path d="M0 0 C1.98 0 3.96 0 6 0 C6 0.66 6 1.32 6 2 C17.55 2 29.1 2 41 2 C41 3.32 41 4.64 41 6 C52.88 6 64.76 6 77 6 C77 6.66 77 7.32 77 8 C81.29 8 85.58 8 90 8 C90 8.66 90 9.32 90 10 C92.64 10 95.28 10 98 10 C98 11.32 98 12.64 98 14 C100.64 14 103.28 14 106 14 C106 14.66 106 15.32 106 16 C107.32 16 108.64 16 110 16 C110 16.66 110 17.32 110 18 C111.98 18 113.96 18 116 18 C116 19.32 116 20.64 116 22 C117.98 22 119.96 22 122 22 C122 22.66 122 23.32 122 24 C123.32 24 124.64 24 126 24 C126 24.66 126 25.32 126 26 C127.98 26 129.96 26 132 26 C132.33 27.98 132.66 29.96 133 32 C133.66 32 134.32 32 135 32 C135 32.66 135 33.32 135 34 C136.32 34 137.64 34 139 34 C139 35.32 139 36.64 139 38 C139.66 38 140.32 38 141 38 C141 38.66 141 39.32 141 40 C141.66 40 142.32 40 143 40 C143 40.66 143 41.32 143 42 C144.32 42 145.64 42 147 42 C147 42.66 147 43.32 147 44 C147.66 44 148.32 44 149 44 C149 44.99 149 45.98 149 47 C149.66 47 150.32 47 151 47 C151 47.66 151 48.32 151 49 C152.32 49 153.64 49 155 49 C155 49.66 155 50.32 155 51 C155.66 51 156.32 51 157 51 C157 52.98 157 54.96 157 57 C157.66 57 158.32 57 159 57 C159 57.66 159 58.32 159 59 C160.32 59 161.64 59 163 59 C163 60.32 163 61.64 163 63 C163.66 63 164.32 63 165 63 C165 63.66 165 64.32 165 65 C165.66 65 166.32 65 167 65 C167 65.66 167 66.32 167 67 C168.32 67 169.64 67 171 67 C171 68.32 171 69.64 171 71 C171.66 71 172.32 71 173 71 C173 71.66 173 72.32 173 73 C173.66 73 174.32 73 175 73 C175 73.66 175 74.32 175 75 C175.66 75 176.32 75 177 75 C177 76.32 177 77.64 177 79 C178.32 79 179.64 79 181 79 C181 79.66 181 80.32 181 81 C181.66 81 182.32 81 183 81 C183 81.66 183 82.32 183 83 C183.66 83 184.32 83 185 83 C185 83.66 185 84.32 185 85 C185.99 85 186.98 85 188 85 C188 86.32 188 87.64 188 89 C188.66 89 189.32 89 190 89 C190 89.66 190 90.32 190 91 C190.66 91 191.32 91 192 91 C192 91.66 192 92.32 192 93 C193.32 93 194.64 93 196 93 C196 94.32 196 95.64 196 97 C199.96 97.495 199.96 97.495 204 98 C204 98.66 204 99.32 204 100 C204.66 100 205.32 100 206 100 C206 101.32 206 102.64 206 104 C206.66 104 207.32 104 208 104 C208 104.66 208 105.32 208 106 C209.32 106 210.64 106 212 106 C212 106.66 212 107.32 212 108 C212.66 108 213.32 108 214 108 C214 109.32 214 110.64 214 112 C215.32 112 216.64 112 218 112 C218 112.66 218 113.32 218 114 C219.32 114 220.64 114 222 114 C222 114.66 222 115.32 222 116 C222.66 116 223.32 116 224 116 C224 117.32 224 118.64 224 120 C225.98 120 227.96 120 230 120 C230 120.66 230 121.32 230 122 C230.66 122 231.32 122 232 122 C232 122.66 232 123.32 232 124 C232.66 124 233.32 124 234 124 C234 124.66 234 125.32 234 126 C235.32 126 236.64 126 238 126 C238 127.32 238 128.64 238 130 C238.99 130 239.98 130 241 130 C241 130.66 241 131.32 241 132 C242.32 132 243.64 132 245 132 C245 132.66 245 133.32 245 134 C245.66 134 246.32 134 247 134 C247 135.32 247 136.64 247 138 C248.98 138 250.96 138 253 138 C253 138.66 253 139.32 253 140 C253.66 140 254.32 140 255 140 C255 140.66 255 141.32 255 142 C255.66 142 256.32 142 257 142 C257 143.32 257 144.64 257 146 C258.98 146 260.96 146 263 146 C263 146.66 263 147.32 263 148 C263.66 148 264.32 148 265 148 C265 148.66 265 149.32 265 150 C265.66 150 266.32 150 267 150 C267 150.99 267 151.98 267 153 C268.98 153 270.96 153 273 153 C273 153.66 273 154.32 273 155 C273.66 155 274.32 155 275 155 C275 155.66 275 156.32 275 157 C276.32 157 277.64 157 279 157 C279 158.32 279 159.64 279 161 C279.66 161 280.32 161 281 161 C281 161.66 281 162.32 281 163 C281.66 163 282.32 163 283 163 C283 163.66 283 164.32 283 165 C284.32 165 285.64 165 287 165 C287 165.66 287 166.32 287 167 C287.66 167 288.32 167 289 167 C289 168.32 289 169.64 289 171 C290.65 171 292.3 171 294 171 C294 171.66 294 172.32 294 173 C294.66 173 295.32 173 296 173 C296 173.66 296 174.32 296 175 C296.66 175 297.32 175 298 175 C298 176.32 298 177.64 298 179 C298.66 179 299.32 179 300 179 C300 179.66 300 180.32 300 181 C301.32 181 302.64 181 304 181 C304 181.66 304 182.32 304 183 C304.66 183 305.32 183 306 183 C306 184.32 306 185.64 306 187 C306.66 187 307.32 187 308 187 C308 187.66 308 188.32 308 189 C309.98 189 311.96 189 314 189 C314 189.66 314 190.32 314 191 C314.66 191 315.32 191 316 191 C316 192.32 316 193.64 316 195 C317.32 195 318.64 195 320 195 C320 195.66 320 196.32 320 197 C320.66 197 321.32 197 322 197 C322 197.66 322 198.32 322 199 C322.66 199 323.32 199 324 199 C324 200.32 324 201.64 324 203 C325.98 203.33 327.96 203.66 330 204 C330 204.66 330 205.32 330 206 C330.66 206 331.32 206 332 206 C332 206.66 332 207.32 332 208 C333.32 208 334.64 208 336 208 C336 209.98 336 211.96 336 214 C336.66 214 337.32 214 338 214 C338 214.66 338 215.32 338 216 C338.66 216 339.32 216 340 216 C340 217.32 340 218.64 340 220 C340.66 220 341.32 220 342 220 C342 220.66 342 221.32 342 222 C343.32 222 344.64 222 346 222 C346.33 223.98 346.66 225.96 347 228 C347.66 228 348.32 228 349 228 C349 228.66 349 229.32 349 230 C350.32 230 351.64 230 353 230 C353 231.98 353 233.96 353 236 C353.66 236 354.32 236 355 236 C355 236.66 355 237.32 355 238 C355.66 238 356.32 238 357 238 C357 238.66 357 239.32 357 240 C358.32 240 359.64 240 361 240 C361 241.32 361 242.64 361 244 C361.66 244 362.32 244 363 244 C363 245.32 363 246.64 363 248 C363.66 248 364.32 248 365 248 C365 248.66 365 249.32 365 250 C366.32 250 367.64 250 369 250 C369 251.98 369 253.96 369 256 C369.66 256 370.32 256 371 256 C371 256.66 371 257.32 371 258 C371.66 258 372.32 258 373 258 C373 258.99 373 259.98 373 261 C374.32 261 375.64 261 377 261 C377 262.32 377 263.64 377 265 C377.66 265 378.32 265 379 265 C379 266.32 379 267.64 379 269 C379.66 269 380.32 269 381 269 C381 270.32 381 271.64 381 273 C381.66 273 382.32 273 383 273 C383 274.98 383 276.96 383 279 C384.32 279 385.64 279 387 279 C387 279.66 387 280.32 387 281 C387.66 281 388.32 281 389 281 C389 282.98 389 284.96 389 287 C389.66 287 390.32 287 391 287 C391 287.66 391 288.32 391 289 C392.32 289 393.64 289 395 289 C395 290.98 395 292.96 395 295 C395.66 295 396.32 295 397 295 C397 296.32 397 297.64 397 299 C397.66 299 398.32 299 399 299 C399 300.98 399 302.96 399 305 C399.99 305 400.98 305 402 305 C402 307.31 402 309.62 402 312 C402.66 312 403.32 312 404 312 C404 315.3 404 318.6 404 322 C404.66 322 405.32 322 406 322 C406 340.15 406 358.3 406 377 C405.34 377 404.68 377 404 377 C404 380.3 404 383.6 404 387 C403.34 387 402.68 387 402 387 C402 391.62 402 396.24 402 401 C401.01 401 400.02 401 399 401 C399 403.64 399 406.28 399 409 C398.34 409 397.68 409 397 409 C397 412.3 397 415.6 397 419 C396.34 419 395.68 419 395 419 C395 421.31 395 423.62 395 426 C393.68 426 392.36 426 391 426 C391 427.32 391 428.64 391 430 C390.34 430 389.68 430 389 430 C389 432.64 389 435.28 389 438 C388.34 438 387.68 438 387 438 C387 439.98 387 441.96 387 444 C385.68 444 384.36 444 383 444 C383 445.98 383 447.96 383 450 C382.34 450 381.68 450 381 450 C381 451.98 381 453.96 381 456 C380.34 456 379.68 456 379 456 C379 457.32 379 458.64 379 460 C378.34 460 377.68 460 377 460 C377 461.32 377 462.64 377 464 C375.68 464 374.36 464 373 464 C373 465.98 373 467.96 373 470 C372.34 470 371.68 470 371 470 C371 471.65 371 473.3 371 475 C370.34 475 369.68 475 369 475 C369 475.66 369 476.32 369 477 C367.68 477 366.36 477 365 477 C365 478.98 365 480.96 365 483 C364.34 483 363.68 483 363 483 C363 483.66 363 484.32 363 485 C362.34 485 361.68 485 361 485 C361 486.98 361 488.96 361 491 C359.68 491 358.36 491 357 491 C357 492.32 357 493.64 357 495 C356.34 495 355.68 495 355 495 C355 495.66 355 496.32 355 497 C354.34 497 353.68 497 353 497 C353 498.32 353 499.64 353 501 C351.68 501 350.36 501 349 501 C349 502.32 349 503.64 349 505 C348.34 505 347.68 505 347 505 C346.67 507.64 346.34 510.28 346 513 C344.68 513 343.36 513 342 513 C342 514.32 342 515.64 342 517 C341.34 517 340.68 517 340 517 C340 517.66 340 518.32 340 519 C339.34 519 338.68 519 338 519 C338 519.66 338 520.32 338 521 C337.34 521 336.68 521 336 521 C336 522.32 336 523.64 336 525 C334.68 525 333.36 525 332 525 C332 525.99 332 526.98 332 528 C331.34 528 330.68 528 330 528 C330 529.32 330 530.64 330 532 C329.34 532 328.68 532 328 532 C328 532.66 328 533.32 328 534 C326.68 534 325.36 534 324 534 C324 534.66 324 535.32 324 536 C323.34 536 322.68 536 322 536 C322 536.66 322 537.32 322 538 C321.34 538 320.68 538 320 538 C320 539.32 320 540.64 320 542 C318.68 542 317.36 542 316 542 C316 542.66 316 543.32 316 544 C315.34 544 314.68 544 314 544 C314 544.66 314 545.32 314 546 C312.02 546 310.04 546 308 546 C308 547.32 308 548.64 308 550 C307.34 550 306.68 550 306 550 C306 550.66 306 551.32 306 552 C305.34 552 304.68 552 304 552 C304 552.66 304 553.32 304 554 C302.02 554 300.04 554 298 554 C298 555.32 298 556.64 298 558 C297.34 558 296.68 558 296 558 C296 558.66 296 559.32 296 560 C295.34 560 294.68 560 294 560 C294 560.66 294 561.32 294 562 C293.01 562 292.02 562 291 562 C291 563.32 291 564.64 291 566 C290.34 566 289.68 566 289 566 C289 566.66 289 567.32 289 568 C287.02 568 285.04 568 283 568 C283 568.66 283 569.32 283 570 C282.34 570 281.68 570 281 570 C281 571.32 281 572.64 281 574 C280.34 574 279.68 574 279 574 C279 574.66 279 575.32 279 576 C277.02 576 275.04 576 273 576 C273 576.66 273 577.32 273 578 C270.29120665 579.35439668 267.99066732 579.06501451 265 579 C265 580.32 265 581.64 265 583 C264.34 583 263.68 583 263 583 C263 583.66 263 584.32 263 585 C261.02 585 259.04 585 257 585 C257 585.66 257 586.32 257 587 C256.34 587 255.68 587 255 587 C255 588.32 255 589.64 255 591 C253.02 591 251.04 591 249 591 C249 591.66 249 592.32 249 593 C247.68 593 246.36 593 245 593 C245 593.66 245 594.32 245 595 C243.35 595 241.7 595 240 595 C240 596.32 240 597.64 240 599 C239.34 599 238.68 599 238 599 C238 599.66 238 600.32 238 601 C236.02 601 234.04 601 232 601 C232 601.66 232 602.32 232 603 C230.02 603 228.04 603 226 603 C226 604.32 226 605.64 226 607 C224.68 607 223.36 607 222 607 C222 607.66 222 608.32 222 609 C220.02 609 218.04 609 216 609 C216 609.66 216 610.32 216 611 C214.68 611 213.36 611 212 611 C212 612.32 212 613.64 212 615 C210.68 615 209.36 615 208 615 C208 615.66 208 616.32 208 617 C206.68 617 205.36 617 204 617 C204 617.66 204 618.32 204 619 C201.36 619 198.72 619 196 619 C196 619.66 196 620.32 196 621 C194.02 621 192.04 621 190 621 C190 622.32 190 623.64 190 625 C188.35 625 186.7 625 185 625 C185 625.66 185 626.32 185 627 C182.36 627 179.72 627 177 627 C177 627.66 177 628.32 177 629 C175.68 629 174.36 629 173 629 C173 630.32 173 631.64 173 633 C167.72 633.33 162.44 633.66 157 634 C157 634.66 157 635.32 157 636 C154.36 636 151.72 636 149 636 C149 637.32 149 638.64 149 640 C145.7 640 142.4 640 139 640 C139 640.66 139 641.32 139 642 C134.71 642 130.42 642 126 642 C126 642.66 126 643.32 126 644 C122.7 644 119.4 644 116 644 C116 645.32 116 646.64 116 648 C112.7 648 109.4 648 106 648 C106 648.66 106 649.32 106 650 C100.72 650 95.44 650 90 650 C90 650.66 90 651.32 90 652 C85.05 652 80.1 652 75 652 C75 653.32 75 654.64 75 656 C67.08 656 59.16 656 51 656 C51 656.66 51 657.32 51 658 C44.4 658 37.8 658 31 658 C31 658.66 31 659.32 31 660 C22.75 660 14.5 660 6 660 C6 660.66 6 661.32 6 662 C-4.56 662 -15.12 662 -26 662 C-26 663.32 -26 664.64 -26 666 C-65.93 666 -105.86 666 -147 666 C-147 666.66 -147 667.32 -147 668 C-183.3 668 -219.6 668 -257 668 C-257 667.34 -257 666.68 -257 666 C-267.56 666 -278.12 666 -289 666 C-289 664.68 -289 663.36 -289 662 C-295.93 662 -302.86 662 -310 662 C-310 661.34 -310 660.68 -310 660 C-316.6 660 -323.2 660 -330 660 C-330 659.34 -330 658.68 -330 658 C-334.62 658 -339.24 658 -344 658 C-344 657.34 -344 656.68 -344 656 C-346.97 656 -349.94 656 -353 656 C-353 654.68 -353 653.36 -353 652 C-356.96 652 -360.92 652 -365 652 C-365 651.34 -365 650.68 -365 650 C-366.98 650 -368.96 650 -371 650 C-371 649.34 -371 648.68 -371 648 C-374.3 648 -377.6 648 -381 648 C-381 646.68 -381 645.36 -381 644 C-382.98 644 -384.96 644 -387 644 C-387 643.34 -387 642.68 -387 642 C-389.64 642 -392.28 642 -395 642 C-395 641.34 -395 640.68 -395 640 C-396.98 640 -398.96 640 -401 640 C-401 638.68 -401 637.36 -401 636 C-402.65 636 -404.3 636 -406 636 C-406 635.34 -406 634.68 -406 634 C-409.96 633.67 -413.92 633.34 -418 633 C-418 631.68 -418 630.36 -418 629 C-419.32 629 -420.64 629 -422 629 C-422 628.34 -422 627.68 -422 627 C-423.98 627 -425.96 627 -428 627 C-428 626.34 -428 625.68 -428 625 C-429.98 625 -431.96 625 -434 625 C-434 623.68 -434 622.36 -434 621 C-435.32 621 -436.64 621 -438 621 C-438 620.34 -438 619.68 -438 619 C-439.32 619 -440.64 619 -442 619 C-442 618.34 -442 617.68 -442 617 C-443.32 617 -444.64 617 -446 617 C-446 616.34 -446 615.68 -446 615 C-446.66 615 -447.32 615 -448 615 C-448 613.68 -448 612.36 -448 611 C-449.32 611 -450.64 611 -452 611 C-452 610.34 -452 609.68 -452 609 C-453.32 609 -454.64 609 -456 609 C-456 608.34 -456 607.68 -456 607 C-456.99 607 -457.98 607 -459 607 C-459 605.68 -459 604.36 -459 603 C-459.66 603 -460.32 603 -461 603 C-461 602.34 -461 601.68 -461 601 C-461.66 601 -462.32 601 -463 601 C-463 600.34 -463 599.68 -463 599 C-464.32 599 -465.64 599 -467 599 C-467 597.68 -467 596.36 -467 595 C-467.66 595 -468.32 595 -469 595 C-469 594.34 -469 593.68 -469 593 C-469.66 593 -470.32 593 -471 593 C-471 592.34 -471 591.68 -471 591 C-472.32 591 -473.64 591 -475 591 C-475 589.68 -475 588.36 -475 587 C-475.66 587 -476.32 587 -477 587 C-477 586.34 -477 585.68 -477 585 C-477.66 585 -478.32 585 -479 585 C-479 584.34 -479 583.68 -479 583 C-480.32 583 -481.64 583 -483 583 C-483 581.68 -483 580.36 -483 579 C-484.32 578.67 -485.64 578.34 -487 578 C-487 577.34 -487 576.68 -487 576 C-487.66 576 -488.32 576 -489 576 C-489 575.34 -489 574.68 -489 574 C-490.32 574 -491.64 574 -493 574 C-493 572.68 -493 571.36 -493 570 C-493.66 570 -494.32 570 -495 570 C-495 569.34 -495 568.68 -495 568 C-495.66 568 -496.32 568 -497 568 C-497 567.34 -497 566.68 -497 566 C-498.32 566 -499.64 566 -501 566 C-501 564.02 -501 562.04 -501 560 C-501.66 560 -502.32 560 -503 560 C-503 559.34 -503 558.68 -503 558 C-503.66 558 -504.32 558 -505 558 C-505 556.02 -505 554.04 -505 552 C-506.32 552 -507.64 552 -509 552 C-509.495 548.04 -509.495 548.04 -510 544 C-510.66 544 -511.32 544 -512 544 C-512 543.34 -512 542.68 -512 542 C-513.32 542 -514.64 542 -516 542 C-516 540.02 -516 538.04 -516 536 C-516.66 536 -517.32 536 -518 536 C-518 534.68 -518 533.36 -518 532 C-518.66 532 -519.32 532 -520 532 C-520 529.69 -520 527.38 -520 525 C-521.32 525 -522.64 525 -524 525 C-524 523.02 -524 521.04 -524 519 C-524.66 519 -525.32 519 -526 519 C-526 516.36 -526 513.72 -526 511 C-526.66 511 -527.32 511 -528 511 C-528 508.36 -528 505.72 -528 503 C-528.66 503 -529.32 503 -530 503 C-530 500.36 -530 497.72 -530 495 C-531.32 495 -532.64 495 -534 495 C-534 489.72 -534 484.44 -534 479 C-534.66 479 -535.32 479 -536 479 C-536 450.62 -536 422.24 -536 393 C-535.34 393 -534.68 393 -534 393 C-534 385.08 -534 377.16 -534 369 C-532.68 369 -531.36 369 -530 369 C-530 361.41 -530 353.82 -530 346 C-529.34 346 -528.68 346 -528 346 C-528 340.72 -528 335.44 -528 330 C-527.34 330 -526.68 330 -526 330 C-526 326.04 -526 322.08 -526 318 C-525.34 318 -524.68 318 -524 318 C-524 314.37 -524 310.74 -524 307 C-522.68 307 -521.36 307 -520 307 C-520 303.7 -520 300.4 -520 297 C-519.34 297 -518.68 297 -518 297 C-518 294.36 -518 291.72 -518 289 C-517.34 289 -516.68 289 -516 289 C-516 287.68 -516 286.36 -516 285 C-514.68 285 -513.36 285 -512 285 C-512 283.68 -512 282.36 -512 281 C-511.34 281 -510.68 281 -510 281 C-509.505 275.06 -509.505 275.06 -509 269 C-507.68 269 -506.36 269 -505 269 C-505 266.36 -505 263.72 -505 261 C-504.34 261 -503.68 261 -503 261 C-503 258.69 -503 256.38 -503 254 C-502.34 254 -501.68 254 -501 254 C-501 252.68 -501 251.36 -501 250 C-499.68 250 -498.36 250 -497 250 C-497 248.68 -497 247.36 -497 246 C-496.34 246 -495.68 246 -495 246 C-495 244.02 -495 242.04 -495 240 C-494.34 240 -493.68 240 -493 240 C-493 239.34 -493 238.68 -493 238 C-491.68 238 -490.36 238 -489 238 C-489 236.02 -489 234.04 -489 232 C-488.34 232 -487.68 232 -487 232 C-487 231.34 -487 230.68 -487 230 C-486.34 230 -485.68 230 -485 230 C-485 228.02 -485 226.04 -485 224 C-484.34 224 -483.68 224 -483 224 C-483 223.34 -483 222.68 -483 222 C-481.68 222 -480.36 222 -479 222 C-479 220.02 -479 218.04 -479 216 C-478.34 216 -477.68 216 -477 216 C-477 215.34 -477 214.68 -477 214 C-476.34 214 -475.68 214 -475 214 C-475 213.34 -475 212.68 -475 212 C-473.68 212 -472.36 212 -471 212 C-471 210.02 -471 208.04 -471 206 C-470.34 206 -469.68 206 -469 206 C-469 205.34 -469 204.68 -469 204 C-467.02 203.67 -465.04 203.34 -463 203 C-463 201.02 -463 199.04 -463 197 C-462.34 197 -461.68 197 -461 197 C-461 196.34 -461 195.68 -461 195 C-460.34 195 -459.68 195 -459 195 C-459 193.68 -459 192.36 -459 191 C-458.01 191 -457.02 191 -456 191 C-456 190.34 -456 189.68 -456 189 C-455.34 189 -454.68 189 -454 189 C-454 187.02 -454 185.04 -454 183 C-453.34 183 -452.68 183 -452 183 C-452 182.34 -452 181.68 -452 181 C-450.68 181 -449.36 181 -448 181 C-448 180.34 -448 179.68 -448 179 C-447.34 179 -446.68 179 -446 179 C-446 177.68 -446 176.36 -446 175 C-445.34 175 -444.68 175 -444 175 C-444 174.34 -444 173.68 -444 173 C-443.34 173 -442.68 173 -442 173 C-442 172.34 -442 171.68 -442 171 C-440.68 171 -439.36 171 -438 171 C-438 169.68 -438 168.36 -438 167 C-437.34 167 -436.68 167 -436 167 C-436 166.34 -436 165.68 -436 165 C-435.34 165 -434.68 165 -434 165 C-434 164.34 -434 163.68 -434 163 C-432.68 163 -431.36 163 -430 163 C-430 162.34 -430 161.68 -430 161 C-429.34 161 -428.68 161 -428 161 C-428 159.68 -428 158.36 -428 157 C-427.34 157 -426.68 157 -426 157 C-426 156.34 -426 155.68 -426 155 C-424.02 155 -422.04 155 -420 155 C-420 154.34 -420 153.68 -420 153 C-419.34 153 -418.68 153 -418 153 C-418 152.01 -418 151.02 -418 150 C-416.68 150 -415.36 150 -414 150 C-414 149.34 -414 148.68 -414 148 C-413.34 148 -412.68 148 -412 148 C-412 147.34 -412 146.68 -412 146 C-411.34 146 -410.68 146 -410 146 C-410 144.68 -410 143.36 -410 142 C-408.68 142 -407.36 142 -406 142 C-406 141.34 -406 140.68 -406 140 C-405.34 140 -404.68 140 -404 140 C-403.67 138.02 -403.34 136.04 -403 134 C-402.34 134 -401.68 134 -401 134 C-401 133.34 -401 132.68 -401 132 C-399.68 132 -398.36 132 -397 132 C-397 131.34 -397 130.68 -397 130 C-395.68 130 -394.36 130 -393 130 C-393 128.68 -393 127.36 -393 126 C-391.68 126 -390.36 126 -389 126 C-389 125.34 -389 124.68 -389 124 C-388.34 124 -387.68 124 -387 124 C-387 123.34 -387 122.68 -387 122 C-386.34 122 -385.68 122 -385 122 C-385 121.34 -385 120.68 -385 120 C-383.68 120 -382.36 120 -381 120 C-381 118.68 -381 117.36 -381 116 C-380.34 116 -379.68 116 -379 116 C-379 115.34 -379 114.68 -379 114 C-378.34 114 -377.68 114 -377 114 C-377 113.34 -377 112.68 -377 112 C-375.02 112 -373.04 112 -371 112 C-371 110.68 -371 109.36 -371 108 C-370.34 108 -369.68 108 -369 108 C-369 107.34 -369 106.68 -369 106 C-367.68 106 -366.36 106 -365 106 C-365 105.34 -365 104.68 -365 104 C-364.34 104 -363.68 104 -363 104 C-363 102.68 -363 101.36 -363 100 C-362.34 100 -361.68 100 -361 100 C-361 99.34 -361 98.68 -361 98 C-358.36 97.67 -355.72 97.34 -353 97 C-353 95.68 -353 94.36 -353 93 C-351.35 93 -349.7 93 -348 93 C-348 92.34 -348 91.68 -348 91 C-347.34 91 -346.68 91 -346 91 C-346 90.34 -346 89.68 -346 89 C-345.34 89 -344.68 89 -344 89 C-344 87.68 -344 86.36 -344 85 C-342.02 85 -340.04 85 -338 85 C-338 84.34 -338 83.68 -338 83 C-337.34 83 -336.68 83 -336 83 C-336 82.34 -336 81.68 -336 81 C-334.02 81 -332.04 81 -330 81 C-330 80.34 -330 79.68 -330 79 C-328.02 79 -326.04 79 -324 79 C-324 77.68 -324 76.36 -324 75 C-322.02 75 -320.04 75 -318 75 C-318 74.34 -318 73.68 -318 73 C-316.02 73 -314.04 73 -312 73 C-312 72.34 -312 71.68 -312 71 C-311.34 71 -310.68 71 -310 71 C-310 69.68 -310 68.36 -310 67 C-308.02 67 -306.04 67 -304 67 C-304 66.34 -304 65.68 -304 65 C-303.34 65 -302.68 65 -302 65 C-302 64.34 -302 63.68 -302 63 C-300.02 63 -298.04 63 -296 63 C-295.67 61.02 -295.34 59.04 -295 57 C-293.02 57 -291.04 57 -289 57 C-289 56.34 -289 55.68 -289 55 C-285.7 55 -282.4 55 -279 55 C-279 53.68 -279 52.36 -279 51 C-276.36 51 -273.72 51 -271 51 C-271 50.34 -271 49.68 -271 49 C-268.36 49 -265.72 49 -263 49 C-263 48.34 -263 47.68 -263 47 C-260.36 47 -257.72 47 -255 47 C-255 46.01 -255 45.02 -255 44 C-254.34 44 -253.68 44 -253 44 C-253 43.34 -253 42.68 -253 42 C-251.02 42 -249.04 42 -247 42 C-247 41.34 -247 40.68 -247 40 C-246.34 40 -245.68 40 -245 40 C-245 39.34 -245 38.68 -245 38 C-243.35 38 -241.7 38 -240 38 C-240 36.68 -240 35.36 -240 34 C-239.34 34 -238.68 34 -238 34 C-238 33.34 -238 32.68 -238 32 C-237.34 32 -236.68 32 -236 32 C-236 31.34 -236 30.68 -236 30 C-234.02 30 -232.04 30 -230 30 C-230 28.68 -230 27.36 -230 26 C-227.36 26 -224.72 26 -222 26 C-222 25.34 -222 24.68 -222 24 C-218.7 24 -215.4 24 -212 24 C-212 23.34 -212 22.68 -212 22 C-203.75 22 -195.5 22 -187 22 C-187 20.68 -187 19.36 -187 18 C-177.76 18 -168.52 18 -159 18 C-159 17.34 -159 16.68 -159 16 C-152.4 16 -145.8 16 -139 16 C-139 15.34 -139 14.68 -139 14 C-132.07 14 -125.14 14 -118 14 C-118 12.68 -118 11.36 -118 10 C-109.42 10 -100.84 10 -92 10 C-92 9.34 -92 8.68 -92 8 C-83.75 8 -75.5 8 -67 8 C-67 7.34 -67 6.68 -67 6 C-61.72 6 -56.44 6 -51 6 C-51 4.68 -51 3.36 -51 2 C-34.17 2 -17.34 2 0 2 C0 1.34 0 0.68 0 0 Z " fill="#000000" transform="translate(616,229)"/>
<path d="M0 0 C12.87 0 25.74 0 39 0 C39 0.99 39 1.98 39 3 C40.32 3 41.64 3 43 3 C43 3.66 43 4.32 43 5 C44.98 5 46.96 5 49 5 C49 5.66 49 6.32 49 7 C49.66 7 50.32 7 51 7 C51 7.66 51 8.32 51 9 C52.98 9 54.96 9 57 9 C57 10.32 57 11.64 57 13 C57.66 13 58.32 13 59 13 C59 13.66 59 14.32 59 15 C60.98 15 62.96 15 65 15 C65 15.66 65 16.32 65 17 C66.98 17 68.96 17 71 17 C71 18.32 71 19.64 71 21 C72.32 21 73.64 21 75 21 C75 21.66 75 22.32 75 23 C79.29 23 83.58 23 88 23 C88 23.66 88 24.32 88 25 C89.32 25 90.64 25 92 25 C92 26.32 92 27.64 92 29 C93.98 29 95.96 29 98 29 C98 29.66 98 30.32 98 31 C98.66 31 99.32 31 100 31 C100 31.66 100 32.32 100 33 C101.32 33 102.64 33 104 33 C104 34.32 104 35.64 104 37 C104.66 37 105.32 37 106 37 C106 37.66 106 38.32 106 39 C106.66 39 107.32 39 108 39 C108 40.98 108 42.96 108 45 C109.32 45 110.64 45 112 45 C112 46.32 112 47.64 112 49 C112.66 49 113.32 49 114 49 C114 49.66 114 50.32 114 51 C114.66 51 115.32 51 116 51 C116 52.65 116 54.3 116 56 C116.66 56 117.32 56 118 56 C118 56.66 118 57.32 118 58 C119.32 58 120.64 58 122 58 C122 59.32 122 60.64 122 62 C122.66 62 123.32 62 124 62 C124 62.66 124 63.32 124 64 C124.66 64 125.32 64 126 64 C126 64.66 126 65.32 126 66 C127.32 66 128.64 66 130 66 C130 67.32 130 68.64 130 70 C130.66 70 131.32 70 132 70 C132.33 71.32 132.66 72.64 133 74 C134.32 74 135.64 74 137 74 C137 75.32 137 76.64 137 78 C137.66 78 138.32 78 139 78 C139 78.66 139 79.32 139 80 C139.66 80 140.32 80 141 80 C141 86.6 141 93.2 141 100 C140.34 100 139.68 100 139 100 C139 101.98 139 103.96 139 106 C138.34 106 137.68 106 137 106 C137 108.31 137 110.62 137 113 C135.68 113 134.36 113 133 113 C132.67 115.64 132.34 118.28 132 121 C131.34 121 130.68 121 130 121 C130 121.66 130 122.32 130 123 C128.02 123 126.04 123 124 123 C124 124.32 124 125.64 124 127 C123.34 127 122.68 127 122 127 C122 127.66 122 128.32 122 129 C120.02 129 118.04 129 116 129 C116 129.66 116 130.32 116 131 C112.7 131 109.4 131 106 131 C106 131.66 106 132.32 106 133 C102.7 133 99.4 133 96 133 C96 134.32 96 135.64 96 137 C94.02 137 92.04 137 90 137 C90 137.66 90 138.32 90 139 C88.02 139 86.04 139 84 139 C84 139.66 84 140.32 84 141 C82.68 141 81.36 141 80 141 C80 142.32 80 143.64 80 145 C79.01 145 78.02 145 77 145 C77 145.66 77 146.32 77 147 C76.34 147 75.68 147 75 147 C75 147.66 75 148.32 75 149 C73.68 149 72.36 149 71 149 C71 150.32 71 151.64 71 153 C69.68 153 68.36 153 67 153 C67 153.66 67 154.32 67 155 C65.68 155 64.36 155 63 155 C63 155.66 63 156.32 63 157 C61.02 157 59.04 157 57 157 C57 158.32 57 159.64 57 161 C54.29120665 162.35439668 51.99066732 162.06501451 49 162 C49 162.66 49 163.32 49 164 C47.02 164 45.04 164 43 164 C43 165.32 43 166.64 43 168 C41.68 168 40.36 168 39 168 C39 168.66 39 169.32 39 170 C36.36 170 33.72 170 31 170 C31 170.66 31 171.32 31 172 C29.02 172 27.04 172 25 172 C24.67 173.98 24.34 175.96 24 178 C20.7 178 17.4 178 14 178 C14 178.66 14 179.32 14 180 C11.36 180 8.72 180 6 180 C6 180.66 6 181.32 6 182 C4.02 182 2.04 182 0 182 C0 183.32 0 184.64 0 186 C-3.3 186 -6.6 186 -10 186 C-10 186.66 -10 187.32 -10 188 C-13.3 188 -16.6 188 -20 188 C-20 188.66 -20 189.32 -20 190 C-36.17 190 -52.34 190 -69 190 C-69 189.34 -69 188.68 -69 188 C-71.64 188 -74.28 188 -77 188 C-77 187.34 -77 186.68 -77 186 C-79.31 186 -81.62 186 -84 186 C-84 184.68 -84 183.36 -84 182 C-86.64 182 -89.28 182 -92 182 C-92 181.34 -92 180.68 -92 180 C-93.98 180 -95.96 180 -98 180 C-98 179.34 -98 178.68 -98 178 C-98.66 178 -99.32 178 -100 178 C-100 176.68 -100 175.36 -100 174 C-101.98 174 -103.96 174 -106 174 C-106 173.34 -106 172.68 -106 172 C-106.66 172 -107.32 172 -108 172 C-108 171.34 -108 170.68 -108 170 C-108.66 170 -109.32 170 -110 170 C-110 169.34 -110 168.68 -110 168 C-111.32 168 -112.64 168 -114 168 C-114 166.68 -114 165.36 -114 164 C-114.66 164 -115.32 164 -116 164 C-116 163.34 -116 162.68 -116 162 C-117.98 161.67 -119.96 161.34 -122 161 C-122 159.68 -122 158.36 -122 157 C-122.66 157 -123.32 157 -124 157 C-124 156.34 -124 155.68 -124 155 C-124.66 155 -125.32 155 -126 155 C-126 154.34 -126 153.68 -126 153 C-127.32 153 -128.64 153 -130 153 C-130 151.02 -130 149.04 -130 147 C-130.66 147 -131.32 147 -132 147 C-132 146.34 -132 145.68 -132 145 C-132.66 145 -133.32 145 -134 145 C-134 143.02 -134 141.04 -134 139 C-134.66 139 -135.32 139 -136 139 C-136 137.02 -136 135.04 -136 133 C-136.99 133 -137.98 133 -139 133 C-139 131.68 -139 130.36 -139 129 C-139.66 129 -140.32 129 -141 129 C-141 126.36 -141 123.72 -141 121 C-141.66 121 -142.32 121 -143 121 C-143 114.07 -143 107.14 -143 100 C-142.34 100 -141.68 100 -141 100 C-141 95.38 -141 90.76 -141 86 C-140.34 86 -139.68 86 -139 86 C-139 83.36 -139 80.72 -139 78 C-138.01 78 -137.02 78 -136 78 C-136 76.02 -136 74.04 -136 72 C-135.34 72 -134.68 72 -134 72 C-134 71.34 -134 70.68 -134 70 C-133.34 70 -132.68 70 -132 70 C-132 68.02 -132 66.04 -132 64 C-131.34 64 -130.68 64 -130 64 C-130 63.34 -130 62.68 -130 62 C-128.68 62 -127.36 62 -126 62 C-126 60.68 -126 59.36 -126 58 C-125.34 58 -124.68 58 -124 58 C-124 57.34 -124 56.68 -124 56 C-123.34 56 -122.68 56 -122 56 C-122 54.35 -122 52.7 -122 51 C-120.68 51 -119.36 51 -118 51 C-118 50.34 -118 49.68 -118 49 C-117.34 49 -116.68 49 -116 49 C-116 48.34 -116 47.68 -116 47 C-115.34 47 -114.68 47 -114 47 C-114 46.34 -114 45.68 -114 45 C-112.68 45 -111.36 45 -110 45 C-110 43.68 -110 42.36 -110 41 C-109.34 41 -108.68 41 -108 41 C-108 40.34 -108 39.68 -108 39 C-107.34 39 -106.68 39 -106 39 C-106 38.34 -106 37.68 -106 37 C-104.68 37 -103.36 37 -102 37 C-102 35.68 -102 34.36 -102 33 C-100.68 33 -99.36 33 -98 33 C-98 32.34 -98 31.68 -98 31 C-96.68 31 -95.36 31 -94 31 C-94 30.34 -94 29.68 -94 29 C-93.34 29 -92.68 29 -92 29 C-92 27.68 -92 26.36 -92 25 C-90.68 25 -89.36 25 -88 25 C-88 24.34 -88 23.68 -88 23 C-86.35 23 -84.7 23 -83 23 C-83 22.34 -83 21.68 -83 21 C-78.38 21 -73.76 21 -69 21 C-69 19.68 -69 18.36 -69 17 C-67.68 17 -66.36 17 -65 17 C-65 16.34 -65 15.68 -65 15 C-63.02 15 -61.04 15 -59 15 C-59 14.34 -59 13.68 -59 13 C-58.34 13 -57.68 13 -57 13 C-57 11.68 -57 10.36 -57 9 C-55.02 9 -53.04 9 -51 9 C-51 8.34 -51 7.68 -51 7 C-50.34 7 -49.68 7 -49 7 C-49 6.34 -49 5.68 -49 5 C-43.06 5 -37.12 5 -31 5 C-31 5.66 -31 6.32 -31 7 C-24.07 7 -17.14 7 -10 7 C-10 6.34 -10 5.68 -10 5 C-8.68 5 -7.36 5 -6 5 C-6 4.34 -6 3.68 -6 3 C-4.02 3 -2.04 3 0 3 C0 2.01 0 1.02 0 0 Z " fill="#FFFFFF" transform="translate(510,593)"/>
<path d="M0 0 C5.94 0 11.88 0 18 0 C18 0.66 18 1.32 18 2 C19.98 2 21.96 2 24 2 C24 3.32 24 4.64 24 6 C24.66 6 25.32 6 26 6 C26 6.66 26 7.32 26 8 C27.65 8 29.3 8 31 8 C31 8.66 31 9.32 31 10 C31.66 10 32.32 10 33 10 C33 11.32 33 12.64 33 14 C34.423125 13.9690625 34.423125 13.9690625 35.875 13.9375 C39 14 39 14 41 15 C41 15.66 41 16.32 41 17 C41.66 17 42.32 17 43 17 C43 17.66 43 18.32 43 19 C43.66 19 44.32 19 45 19 C45 20.98 45 22.96 45 25 C46.32 25 47.64 25 49 25 C49 26.98 49 28.96 49 31 C49.66 31 50.32 31 51 31 C51 33.64 51 36.28 51 39 C51.66 39 52.32 39 53 39 C53 45.6 53 52.2 53 59 C54.32 59 55.64 59 57 59 C57 69.89 57 80.78 57 92 C55.68 92 54.36 92 53 92 C53 93.98 53 95.96 53 98 C52.34 98 51.68 98 51 98 C51 99.32 51 100.64 51 102 C50.34 102 49.68 102 49 102 C49 103.98 49 105.96 49 108 C47.68 108 46.36 108 45 108 C45 108.66 45 109.32 45 110 C44.34 110 43.68 110 43 110 C43 111.98 43 113.96 43 116 C42.34 116 41.68 116 41 116 C41 116.66 41 117.32 41 118 C40.34 118 39.68 118 39 118 C39 119.65 39 121.3 39 123 C37.68 123 36.36 123 35 123 C35 123.66 35 124.32 35 125 C34.34 125 33.68 125 33 125 C33 126.32 33 127.64 33 129 C32.34 129 31.68 129 31 129 C31 129.66 31 130.32 31 131 C29.35 131 27.7 131 26 131 C26 131.66 26 132.32 26 133 C25.34 133 24.68 133 24 133 C24 134.32 24 135.64 24 137 C22.02 137 20.04 137 18 137 C18 137.66 18 138.32 18 139 C17.34 139 16.68 139 16 139 C16 139.66 16 140.32 16 141 C13.36 141 10.72 141 8 141 C8 141.66 8 142.32 8 143 C5.36 143 2.72 143 0 143 C0 144.32 0 145.64 0 147 C-13.53 147 -27.06 147 -41 147 C-41 145.68 -41 144.36 -41 143 C-42.98 143 -44.96 143 -47 143 C-47 142.34 -47 141.68 -47 141 C-47.66 141 -48.32 141 -49 141 C-49 140.34 -49 139.68 -49 139 C-49.66 139 -50.32 139 -51 139 C-51 137.02 -51 135.04 -51 133 C-52.32 133 -53.64 133 -55 133 C-55 132.34 -55 131.68 -55 131 C-55.66 131 -56.32 131 -57 131 C-57 129.02 -57 127.04 -57 125 C-57.66 125 -58.32 125 -59 125 C-59 124.34 -59 123.68 -59 123 C-60.32 123 -61.64 123 -63 123 C-63 121.35 -63 119.7 -63 118 C-63.66 118 -64.32 118 -65 118 C-65 116.68 -65 115.36 -65 114 C-65.66 114 -66.32 114 -67 114 C-67 112.02 -67 110.04 -67 108 C-68.32 108 -69.64 108 -71 108 C-71 104.7 -71 101.4 -71 98 C-71.66 98 -72.32 98 -73 98 C-73 84.47 -73 70.94 -73 57 C-72.34 57 -71.68 57 -71 57 C-71 54.36 -71 51.72 -71 49 C-69.68 49 -68.36 49 -67 49 C-67 48.34 -67 47.68 -67 47 C-66.34 47 -65.68 47 -65 47 C-65 45.02 -65 43.04 -65 41 C-64.34 41 -63.68 41 -63 41 C-63 40.34 -63 39.68 -63 39 C-61.68 39 -60.36 39 -59 39 C-59 37.68 -59 36.36 -59 35 C-58.34 35 -57.68 35 -57 35 C-57 33.68 -57 32.36 -57 31 C-56.34 31 -55.68 31 -55 31 C-55 29.68 -55 28.36 -55 27 C-53.02 27 -51.04 27 -49 27 C-49 26.34 -49 25.68 -49 25 C-48.34 25 -47.68 25 -47 25 C-47 24.34 -47 23.68 -47 23 C-45.68 23 -44.36 23 -43 23 C-43 21.68 -43 20.36 -43 19 C-42.34 19 -41.68 19 -41 19 C-41 18.34 -41 17.68 -41 17 C-39.68 17 -38.36 17 -37 17 C-37 16.34 -37 15.68 -37 15 C-32.64667264 14.15976812 -28.55557481 13.89229005 -24.125 13.9375 C-22.97257813 13.94652344 -21.82015625 13.95554687 -20.6328125 13.96484375 C-19.76398437 13.97644531 -18.89515625 13.98804688 -18 14 C-18 12.68 -18 11.36 -18 10 C-17.34 10 -16.68 10 -16 10 C-16 9.34 -16 8.68 -16 8 C-14.02 8 -12.04 8 -10 8 C-10 7.34 -10 6.68 -10 6 C-8.68 6 -7.36 6 -6 6 C-6 4.68 -6 3.36 -6 2 C-4.02 2 -2.04 2 0 2 C0 1.34 0 0.68 0 0 Z " fill="#FFFFFF" transform="translate(665,418)"/>
<path d="M0 0 C8.58 0 17.16 0 26 0 C26 0.66 26 1.32 26 2 C27.98 2 29.96 2 32 2 C32 3.32 32 4.64 32 6 C33.65 6 35.3 6 37 6 C37 6.66 37 7.32 37 8 C37.66 8 38.32 8 39 8 C39 8.66 39 9.32 39 10 C39.66 10 40.32 10 41 10 C41 11.32 41 12.64 41 14 C41.66 14 42.32 14 43 14 C43 14.66 43 15.32 43 16 C44.32 16 45.64 16 47 16 C47 17.98 47 19.96 47 22 C47.66 22 48.32 22 49 22 C49 23.32 49 24.64 49 26 C49.66 26 50.32 26 51 26 C51 27.32 51 28.64 51 30 C52.32 30 53.64 30 55 30 C55 30.66 55 31.32 55 32 C55.66 32 56.32 32 57 32 C57 32.66 57 33.32 57 34 C57.66 34 58.32 34 59 34 C59 35.98 59 37.96 59 40 C60.32 40 61.64 40 63 40 C63 41.32 63 42.64 63 44 C63.66 44 64.32 44 65 44 C65 51.59 65 59.18 65 67 C64.34 67 63.68 67 63 67 C63 69.64 63 72.28 63 75 C61.68 75 60.36 75 59 75 C59 76.98 59 78.96 59 81 C58.34 81 57.68 81 57 81 C57 81.66 57 82.32 57 83 C56.34 83 55.68 83 55 83 C55 84.98 55 86.96 55 89 C53.68 89 52.36 89 51 89 C51 89.66 51 90.32 51 91 C50.34 91 49.68 91 49 91 C49 92.98 49 94.96 49 97 C47.02 97.33 45.04 97.66 43 98 C43 98.66 43 99.32 43 100 C42.34 100 41.68 100 41 100 C41 101.32 41 102.64 41 104 C40.34 104 39.68 104 39 104 C39 104.66 39 105.32 39 106 C38.34 106 37.68 106 37 106 C37 106.66 37 107.32 37 108 C35.35 108 33.7 108 32 108 C32 109.32 32 110.64 32 112 C30.02 112 28.04 112 26 112 C26 112.66 26 113.32 26 114 C23.36 114 20.72 114 18 114 C18 114.66 18 115.32 18 116 C14.7 116 11.4 116 8 116 C8 116.66 8 117.32 8 118 C-0.91 118 -9.82 118 -19 118 C-19 117.34 -19 116.68 -19 116 C-20.98 116 -22.96 116 -25 116 C-25 115.34 -25 114.68 -25 114 C-26.98 114 -28.96 114 -31 114 C-31 113.34 -31 112.68 -31 112 C-31.66 112 -32.32 112 -33 112 C-33 110.68 -33 109.36 -33 108 C-33.66 108 -34.32 108 -35 108 C-35 107.34 -35 106.68 -35 106 C-36.32 106 -37.64 106 -39 106 C-39 105.34 -39 104.68 -39 104 C-39.66 104 -40.32 104 -41 104 C-41 102.02 -41 100.04 -41 98 C-42.32 97.67 -43.64 97.34 -45 97 C-45 95.68 -45 94.36 -45 93 C-46.32 93 -47.64 93 -49 93 C-49 91.68 -49 90.36 -49 89 C-49.66 89 -50.32 89 -51 89 C-51 87.02 -51 85.04 -51 83 C-51.66 83 -52.32 83 -53 83 C-53 79.7 -53 76.4 -53 73 C-54.32 73 -55.64 73 -57 73 C-57 65.08 -57 57.16 -57 49 C-55.68 49 -54.36 49 -53 49 C-53 46.03 -53 43.06 -53 40 C-52.34 40 -51.68 40 -51 40 C-51 37.36 -51 34.72 -51 32 C-50.34 32 -49.68 32 -49 32 C-49 31.34 -49 30.68 -49 30 C-47.68 30 -46.36 30 -45 30 C-45 28.02 -45 26.04 -45 24 C-44.34 24 -43.68 24 -43 24 C-43 23.34 -43 22.68 -43 22 C-42.34 22 -41.68 22 -41 22 C-41 20.68 -41 19.36 -41 18 C-40.34 18 -39.68 18 -39 18 C-39 17.34 -39 16.68 -39 16 C-37.02 16 -35.04 16 -33 16 C-33 15.34 -33 14.68 -33 14 C-32.34 14 -31.68 14 -31 14 C-31 12.68 -31 11.36 -31 10 C-29.68 10 -28.36 10 -27 10 C-27 9.34 -27 8.68 -27 8 C-26.34 8 -25.68 8 -25 8 C-25 7.34 -25 6.68 -25 6 C-23.02 6 -21.04 6 -19 6 C-19 4.68 -19 3.36 -19 2 C-12.73 2 -6.46 2 0 2 C0 1.34 0 0.68 0 0 Z " fill="#FFFFFF" transform="translate(337,443)"/>
<path d="M0 0 C5.28 0 10.56 0 16 0 C16 0.66 16 1.32 16 2 C16.66 2 17.32 2 18 2 C18 2.66 18 3.32 18 4 C18.66 4 19.32 4 20 4 C20 4.66 20 5.32 20 6 C20.66 6 21.32 6 22 6 C22 7.32 22 8.64 22 10 C23.32 10 24.64 10 26 10 C26 11.32 26 12.64 26 14 C26.66 14 27.32 14 28 14 C28 15.65 28 17.3 28 19 C28.66 19 29.32 19 30 19 C30 22.3 30 25.6 30 29 C29.34 29 28.68 29 28 29 C28 30.98 28 32.96 28 35 C27.34 35 26.68 35 26 35 C26 35.66 26 36.32 26 37 C24.68 37 23.36 37 22 37 C22 38.32 22 39.64 22 41 C21.34 41 20.68 41 20 41 C20 41.66 20 42.32 20 43 C19.34 43 18.68 43 18 43 C18 44.32 18 45.64 18 47 C16.02 47 14.04 47 12 47 C12 48.32 12 49.64 12 51 C11.34 51 10.68 51 10 51 C10 51.66 10 52.32 10 53 C8.02 53 6.04 53 4 53 C4 53.66 4 54.32 4 55 C3.34 55 2.68 55 2 55 C2 56.32 2 57.64 2 59 C1.34 59 0.68 59 0 59 C0 59.66 0 60.32 0 61 C-1.32 61 -2.64 61 -4 61 C-4 61.66 -4 62.32 -4 63 C-6.97 63 -9.94 63 -13 63 C-13 62.34 -13 61.68 -13 61 C-13.66 61 -14.32 61 -15 61 C-15 60.34 -15 59.68 -15 59 C-16.32 59 -17.64 59 -19 59 C-19 57.02 -19 55.04 -19 53 C-19.66 53 -20.32 53 -21 53 C-21 41.12 -21 29.24 -21 17 C-20.34 17 -19.68 17 -19 17 C-19 13.37 -19 9.74 -19 6 C-17.68 6 -16.36 6 -15 6 C-15 5.34 -15 4.68 -15 4 C-11.7 4 -8.4 4 -5 4 C-5 3.34 -5 2.68 -5 2 C-3.35 2 -1.7 2 0 2 C0 1.34 0 0.68 0 0 Z " fill="#000000" transform="translate(647,473)"/>
<path d="M0 0 C7.92 0 15.84 0 24 0 C24 0.66 24 1.32 24 2 C24.66 2 25.32 2 26 2 C26 2.66 26 3.32 26 4 C26.66 4 27.32 4 28 4 C28 6.31 28 8.62 28 11 C29.32 11 30.64 11 32 11 C32 15.62 32 20.24 32 25 C30.68 25 29.36 25 28 25 C28 27.64 28 30.28 28 33 C27.34 33 26.68 33 26 33 C26 33.66 26 34.32 26 35 C25.34 35 24.68 35 24 35 C24 35.66 24 36.32 24 37 C22.68 37 21.36 37 20 37 C20 38.32 20 39.64 20 41 C18.68 41 17.36 41 16 41 C16 41.66 16 42.32 16 43 C10.06 43 4.12 43 -2 43 C-2 42.34 -2 41.68 -2 41 C-3.32 41 -4.64 41 -6 41 C-6 39.68 -6 38.36 -6 37 C-6.66 37 -7.32 37 -8 37 C-8 36.34 -8 35.68 -8 35 C-8.66 35 -9.32 35 -10 35 C-10 34.34 -10 33.68 -10 33 C-11.32 33 -12.64 33 -14 33 C-15.54014555 26.06934502 -16.06985349 17.86665683 -14 11 C-12.68 11 -11.36 11 -10 11 C-10 9.68 -10 8.36 -10 7 C-9.34 7 -8.68 7 -8 7 C-8 6.01 -8 5.02 -8 4 C-7.34 4 -6.68 4 -6 4 C-6 3.34 -6 2.68 -6 2 C-4.02 2 -2.04 2 0 2 C0 1.34 0 0.68 0 0 Z " fill="#000000" transform="translate(335,483)"/>
<path d="M0 0 C12.87 0 25.74 0 39 0 C39 0.99 39 1.98 39 3 C26.79 3 14.58 3 2 3 C2 3.66 2 4.32 2 5 C-0.64 5 -3.28 5 -6 5 C-6 4.34 -6 3.68 -6 3 C-4.02 3 -2.04 3 0 3 C0 2.01 0 1.02 0 0 Z " fill="#FFFFFF" transform="translate(510,593)"/>
<path d="M0 0 C1.32 0 2.64 0 4 0 C4 10.89 4 21.78 4 33 C2.68 33 1.36 33 0 33 C0 22.11 0 11.22 0 0 Z " fill="#FFFFFF" transform="translate(718,477)"/>
<path d="M0 0 C8.58 0 17.16 0 26 0 C26 1.32 26 2.64 26 4 C17.42 4 8.84 4 0 4 C0 2.68 0 1.36 0 0 Z " fill="#FFFFFF" transform="translate(449,783)"/>
<path d="M0 0 C1.32 0 2.64 0 4 0 C4 7.92 4 15.84 4 24 C2.68 24 1.36 24 0 24 C0 16.08 0 8.16 0 0 Z " fill="#FFFFFF" transform="translate(280,492)"/>
<path d="M0 0 C5.28 0 10.56 0 16 0 C16 1.32 16 2.64 16 4 C10.72 4 5.44 4 0 4 C0 2.68 0 1.36 0 0 Z " fill="#FFFFFF" transform="translate(649,561)"/>
<path d="M0 0 C1.32 0 2.64 0 4 0 C4 4.95 4 9.9 4 15 C2.68 15 1.36 15 0 15 C0 10.05 0 5.1 0 0 Z " fill="#000000" transform="translate(363,699)"/>
<path d="M0 0 C4.62 0 9.24 0 14 0 C14 1.32 14 2.64 14 4 C9.38 4 4.76 4 0 4 C0 2.68 0 1.36 0 0 Z " fill="#FFFFFF" transform="translate(321,561)"/>
<path d="M0 0 C1.32 0 2.64 0 4 0 C4 4.62 4 9.24 4 14 C2.68 14 1.36 14 0 14 C0 9.38 0 4.76 0 0 Z " fill="#000000" transform="translate(363,494)"/>
<path d="M0 0 C3.63 0 7.26 0 11 0 C11 1.32 11 2.64 11 4 C7.37 4 3.74 4 0 4 C0 2.68 0 1.36 0 0 Z " fill="#FFFFFF" transform="translate(475,783)"/>
<path d="M0 0 C1.32 0 2.64 0 4 0 C4 3.3 4 6.6 4 10 C2.68 10 1.36 10 0 10 C0 6.7 0 3.4 0 0 Z " fill="#FFFFFF" transform="translate(651,681)"/>
<path d="M0 0 C1.32 0 2.64 0 4 0 C4 1.98 4 3.96 4 6 C2.68 6 1.36 6 0 6 C0 6.66 0 7.32 0 8 C-1.32 8 -2.64 8 -4 8 C-4 7.34 -4 6.68 -4 6 C-3.34 6 -2.68 6 -2 6 C-2 4.68 -2 3.36 -2 2 C-1.34 2 -0.68 2 0 2 C0 1.34 0 0.68 0 0 Z " fill="#FFFFFF" transform="translate(651,526)"/>
<path d="M0 0 C1.32 0 2.64 0 4 0 C4 2.64 4 5.28 4 8 C2.68 8 1.36 8 0 8 C0 8.66 0 9.32 0 10 C-0.66 10 -1.32 10 -2 10 C-2 8.68 -2 7.36 -2 6 C-1.34 6 -0.68 6 0 6 C0 4.02 0 2.04 0 0 Z " fill="#000000" transform="translate(718,510)"/>
<path d="M0 0 C1.32 0 2.64 0 4 0 C4 3.3 4 6.6 4 10 C2.68 10 1.36 10 0 10 C0 6.7 0 3.4 0 0 Z " fill="#FFFFFF" transform="translate(677,492)"/>
<path d="M0 0 C1.32 0 2.64 0 4 0 C4 3.3 4 6.6 4 10 C2.68 10 1.36 10 0 10 C0 6.7 0 3.4 0 0 Z " fill="#000000" transform="translate(718,477)"/>
<path d="M0 0 C3.3 0 6.6 0 10 0 C10 1.32 10 2.64 10 4 C6.7 4 3.4 4 0 4 C0 2.68 0 1.36 0 0 Z " fill="#FFFFFF" transform="translate(345,479)"/>
<path d="M0 0 C3.3 0 6.6 0 10 0 C10 1.32 10 2.64 10 4 C6.7 4 3.4 4 0 4 C0 2.68 0 1.36 0 0 Z " fill="#FFFFFF" transform="translate(649,469)"/>
<path d="M0 0 C1.32 0 2.64 0 4 0 C4 1.32 4 2.64 4 4 C5.32 4 6.64 4 8 4 C8 5.32 8 6.64 8 8 C6.68 8 5.36 8 4 8 C4 7.34 4 6.68 4 6 C3.34 6 2.68 6 2 6 C2 5.34 2 4.68 2 4 C1.34 4 0.68 4 0 4 C0 2.68 0 1.36 0 0 Z " fill="#3B0000" transform="translate(632,651)"/>
<path d="M0 0 C2.64 0 5.28 0 8 0 C8 1.32 8 2.64 8 4 C5.36 4 2.72 4 0 4 C0 2.68 0 1.36 0 0 Z " fill="#000000" transform="translate(449,783)"/>
<path d="M0 0 C2.64 0 5.28 0 8 0 C8 1.32 8 2.64 8 4 C5.36 4 2.72 4 0 4 C0 2.68 0 1.36 0 0 Z " fill="#FFFFFF" transform="translate(482,767)"/>
<path d="M0 0 C2.64 0 5.28 0 8 0 C8 1.32 8 2.64 8 4 C5.36 4 2.72 4 0 4 C0 2.68 0 1.36 0 0 Z " fill="#000000" transform="translate(606,726)"/>
<path d="M0 0 C2.64 0 5.28 0 8 0 C8 1.32 8 2.64 8 4 C5.36 4 2.72 4 0 4 C0 2.68 0 1.36 0 0 Z " fill="#FFFFFF" transform="translate(433,610)"/>
<path d="M0 0 C1.98 0 3.96 0 6 0 C6 1.98 6 3.96 6 6 C4.68 6 3.36 6 2 6 C2 5.34 2 4.68 2 4 C1.34 4 0.68 4 0 4 C0 2.68 0 1.36 0 0 Z " fill="#000000" transform="translate(567,602)"/>
<path d="M0 0 C2.64 0 5.28 0 8 0 C8 1.32 8 2.64 8 4 C5.36 4 2.72 4 0 4 C0 2.68 0 1.36 0 0 Z " fill="#000000" transform="translate(665,561)"/>
<path d="M0 0 C2.64 0 5.28 0 8 0 C8 1.32 8 2.64 8 4 C5.36 4 2.72 4 0 4 C0 2.68 0 1.36 0 0 Z " fill="#000000" transform="translate(335,561)"/>
<path d="M0 0 C1.32 0 2.64 0 4 0 C4 1.98 4 3.96 4 6 C2.02 6 0.04 6 -2 6 C-2 4.68 -2 3.36 -2 2 C-1.34 2 -0.68 2 0 2 C0 1.34 0 0.68 0 0 Z " fill="#000000" transform="translate(710,526)"/>
<path d="M0 0 C1.32 0 2.64 0 4 0 C4 2.64 4 5.28 4 8 C2.68 8 1.36 8 0 8 C0 5.36 0 2.72 0 0 Z " fill="#000000" transform="translate(280,516)"/>
<path d="M0 0 C0.99 0 1.98 0 3 0 C3 1.32 3 2.64 3 4 C4.32 4 5.64 4 7 4 C7 5.32 7 6.64 7 8 C5.68 8 4.36 8 3 8 C2.67 6.68 2.34 5.36 2 4 C1.34 4 0.68 4 0 4 C0 2.68 0 1.36 0 0 Z " fill="#FFFFFF" transform="translate(640,659)"/>
<path d="M0 0 C3.3 0 6.6 0 10 0 C10 0.99 10 1.98 10 3 C6.7 3 3.4 3 0 3 C0 2.01 0 1.02 0 0 Z " fill="#FFFFFF" transform="translate(516,593)"/>
<path d="M0 0 C2.31 0 4.62 0 7 0 C7 1.32 7 2.64 7 4 C4.69 4 2.38 4 0 4 C0 2.68 0 1.36 0 0 Z " fill="#FFFFFF" transform="translate(426,775)"/>
<path d="M0 0 C0.66 0 1.32 0 2 0 C2 1.32 2 2.64 2 4 C2.99 4 3.98 4 5 4 C5 5.32 5 6.64 5 8 C3.35 8 1.7 8 0 8 C0 5.36 0 2.72 0 0 Z " fill="#FFFFFF" transform="translate(369,722)"/>
<path d="M0 0 C1.32 0 2.64 0 4 0 C4 1.32 4 2.64 4 4 C2.68 4 1.36 4 0 4 C0 5.32 0 6.64 0 8 C-0.66 8 -1.32 8 -2 8 C-2 6.02 -2 4.04 -2 2 C-1.34 2 -0.68 2 0 2 C0 1.34 0 0.68 0 0 Z " fill="#000000" transform="translate(388,532)"/>
<path d="M0 0 C1.32 0 2.64 0 4 0 C4 2.31 4 4.62 4 7 C2.68 7 1.36 7 0 7 C0 4.69 0 2.38 0 0 Z " fill="#FFFFFF" transform="translate(718,487)"/>
<path d="M0 0 C1.98 0 3.96 0 6 0 C6 1.98 6 3.96 6 6 C4.68 6 3.36 6 2 6 C2 4.68 2 3.36 2 2 C1.34 2 0.68 2 0 2 C0 1.34 0 0.68 0 0 Z " fill="#FFFFFF" transform="translate(667,477)"/>
<path d="M0 0 C2.31 0 4.62 0 7 0 C7 1.32 7 2.64 7 4 C4.69 4 2.38 4 0 4 C0 2.68 0 1.36 0 0 Z " fill="#000000" transform="translate(640,428)"/>
<path d="M0 0 C0.66 0 1.32 0 2 0 C2 2.64 2 5.28 2 8 C1.34 8 0.68 8 0 8 C0 8.99 0 9.98 0 11 C-0.66 11 -1.32 11 -2 11 C-2 9.35 -2 7.7 -2 6 C-1.34 6 -0.68 6 0 6 C0 4.02 0 2.04 0 0 Z " fill="#FFFFFF" transform="translate(649,693)"/>
<path d="M0 0 C1.32 0 2.64 0 4 0 C4 1.32 4 2.64 4 4 C4.99 4 5.98 4 7 4 C7 4.66 7 5.32 7 6 C5.35 6 3.7 6 2 6 C2 5.34 2 4.68 2 4 C1.34 4 0.68 4 0 4 C0 2.68 0 1.36 0 0 Z " fill="#000000" transform="translate(689,420)"/>
<path d="M0 0 C1.98 0 3.96 0 6 0 C6 1.32 6 2.64 6 4 C4.02 4 2.04 4 0 4 C0 2.68 0 1.36 0 0 Z " fill="#FFFFFF" transform="translate(469,783)"/>
<path d="M0 0 C1.98 0 3.96 0 6 0 C6 1.32 6 2.64 6 4 C4.02 4 2.04 4 0 4 C0 2.68 0 1.36 0 0 Z " fill="#000000" transform="translate(510,775)"/>
<path d="M0 0 C1.98 0 3.96 0 6 0 C6 1.32 6 2.64 6 4 C4.02 4 2.04 4 0 4 C0 2.68 0 1.36 0 0 Z " fill="#FFFFFF" transform="translate(504,775)"/>
<path d="M0 0 C1.98 0 3.96 0 6 0 C6 1.32 6 2.64 6 4 C4.02 4 2.04 4 0 4 C0 2.68 0 1.36 0 0 Z " fill="#FFFFFF" transform="translate(528,767)"/>
<path d="M0 0 C1.98 0 3.96 0 6 0 C6 1.32 6 2.64 6 4 C4.02 4 2.04 4 0 4 C0 2.68 0 1.36 0 0 Z " fill="#000000" transform="translate(404,767)"/>
<path d="M0 0 C1.32 0 2.64 0 4 0 C4 0.66 4 1.32 4 2 C3.34 2 2.68 2 2 2 C2 2.66 2 3.32 2 4 C-0.64 4 -3.28 4 -6 4 C-6 3.34 -6 2.68 -6 2 C-4.02 2 -2.04 2 0 2 C0 1.34 0 0.68 0 0 Z " fill="#FFFFFF" transform="translate(541,763)"/>
<path d="M0 0 C1.98 0 3.96 0 6 0 C6 1.32 6 2.64 6 4 C4.02 4 2.04 4 0 4 C0 2.68 0 1.36 0 0 Z " fill="#000000" transform="translate(567,750)"/>
<path d="M0 0 C1.32 0 2.64 0 4 0 C4 1.98 4 3.96 4 6 C2.68 6 1.36 6 0 6 C0 4.02 0 2.04 0 0 Z " fill="#000000" transform="translate(651,675)"/>
<path d="M0 0 C1.98 0 3.96 0 6 0 C6 1.32 6 2.64 6 4 C4.02 4 2.04 4 0 4 C0 2.68 0 1.36 0 0 Z " fill="#000000" transform="translate(659,561)"/>
<path d="M0 0 C1.32 0 2.64 0 4 0 C4 1.98 4 3.96 4 6 C2.68 6 1.36 6 0 6 C0 4.02 0 2.04 0 0 Z " fill="#000000" transform="translate(594,526)"/>
<path d="M0 0 C1.32 0 2.64 0 4 0 C4 1.98 4 3.96 4 6 C2.68 6 1.36 6 0 6 C0 4.02 0 2.04 0 0 Z " fill="#FFFFFF" transform="translate(594,520)"/>
<path d="M0 0 C1.32 0 2.64 0 4 0 C4 1.98 4 3.96 4 6 C2.68 6 1.36 6 0 6 C0 4.02 0 2.04 0 0 Z " fill="#000000" transform="translate(396,518)"/>
<path d="M0 0 C1.32 0 2.64 0 4 0 C4 1.98 4 3.96 4 6 C2.68 6 1.36 6 0 6 C0 4.02 0 2.04 0 0 Z " fill="#FFFFFF" transform="translate(363,508)"/>
<path d="M0 0 C1.32 0 2.64 0 4 0 C4 1.98 4 3.96 4 6 C2.68 6 1.36 6 0 6 C0 4.02 0 2.04 0 0 Z " fill="#000000" transform="translate(321,510)"/>
<path d="M0 0 C1.32 0 2.64 0 4 0 C4 1.98 4 3.96 4 6 C2.68 6 1.36 6 0 6 C0 4.02 0 2.04 0 0 Z " fill="#FFFFFF" transform="translate(280,510)"/>
<path d="M0 0 C1.32 0 2.64 0 4 0 C4 1.98 4 3.96 4 6 C2.68 6 1.36 6 0 6 C0 4.02 0 2.04 0 0 Z " fill="#000000" transform="translate(363,502)"/>
<path d="M0 0 C1.32 0 2.64 0 4 0 C4 1.98 4 3.96 4 6 C2.68 6 1.36 6 0 6 C0 4.02 0 2.04 0 0 Z " fill="#FFFFFF" transform="translate(280,492)"/>
<path d="M0 0 C1.98 0 3.96 0 6 0 C6 1.32 6 2.64 6 4 C4.02 4 2.04 4 0 4 C0 2.68 0 1.36 0 0 Z " fill="#FFFFFF" transform="translate(339,479)"/>
<path d="M0 0 C1.32 0 2.64 0 4 0 C4 1.98 4 3.96 4 6 C2.68 6 1.36 6 0 6 C0 4.02 0 2.04 0 0 Z " fill="#FFFFFF" transform="translate(594,467)"/>
<path d="M0 0 C1.32 0 2.64 0 4 0 C4 1.98 4 3.96 4 6 C2.68 6 1.36 6 0 6 C0 4.02 0 2.04 0 0 Z " fill="#FFFFFF" transform="translate(380,459)"/>
<path d="M0 0 C1.32 0 2.64 0 4 0 C4 1.98 4 3.96 4 6 C2.68 6 1.36 6 0 6 C0 4.02 0 2.04 0 0 Z " fill="#FFFFFF" transform="translate(710,443)"/>
<path d="M0 0 C1.32 0 2.64 0 4 0 C4 1.98 4 3.96 4 6 C2.68 6 1.36 6 0 6 C0 4.02 0 2.04 0 0 Z " fill="#000000" transform="translate(710,437)"/>
<path d="M0 0 C1.98 0 3.96 0 6 0 C6 1.32 6 2.64 6 4 C4.02 4 2.04 4 0 4 C0 2.68 0 1.36 0 0 Z " fill="#000000" transform="translate(698,428)"/>
<path d="M0 0 C1.32 0 2.64 0 4 0 C4 1.65 4 3.3 4 5 C2.68 5 1.36 5 0 5 C0 3.35 0 1.7 0 0 Z " fill="#FFFFFF" transform="translate(643,701)"/>
<path d="M0 0 C1.98 0 3.96 0 6 0 C6 1.32 6 2.64 6 4 C4.68 4 3.36 4 2 4 C2 3.34 2 2.68 2 2 C1.34 2 0.68 2 0 2 C0 1.34 0 0.68 0 0 Z " fill="#FFFFFF" transform="translate(559,598)"/>
<path d="M0 0 C1.98 0 3.96 0 6 0 C6 1.32 6 2.64 6 4 C4.68 4 3.36 4 2 4 C2 3.34 2 2.68 2 2 C1.34 2 0.68 2 0 2 C0 1.34 0 0.68 0 0 Z " fill="#FFFFFF" transform="translate(616,557)"/>
<path d="M0 0 C1.98 0 3.96 0 6 0 C6 0.66 6 1.32 6 2 C4.68 2 3.36 2 2 2 C2 2.66 2 3.32 2 4 C0.68 4 -0.64 4 -2 4 C-2 3.34 -2 2.68 -2 2 C-1.34 2 -0.68 2 0 2 C0 1.34 0 0.68 0 0 Z " fill="#000000" transform="translate(683,555)"/>
<path d="M0 0 C1.65 0 3.3 0 5 0 C5 1.32 5 2.64 5 4 C3.35 4 1.7 4 0 4 C0 2.68 0 1.36 0 0 Z " fill="#000000" transform="translate(369,551)"/>
<path d="M0 0 C0.66 0 1.32 0 2 0 C2 1.98 2 3.96 2 6 C0.68 6 -0.64 6 -2 6 C-2 4.68 -2 3.36 -2 2 C-1.34 2 -0.68 2 0 2 C0 1.34 0 0.68 0 0 Z " fill="#000000" transform="translate(706,534)"/>
<path d="M0 0 C1.32 0 2.64 0 4 0 C4 1.65 4 3.3 4 5 C2.68 5 1.36 5 0 5 C0 3.35 0 1.7 0 0 Z " fill="#FFFFFF" transform="translate(602,536)"/>
<path d="M0 0 C1.32 0 2.64 0 4 0 C4 1.65 4 3.3 4 5 C2.68 5 1.36 5 0 5 C0 3.35 0 1.7 0 0 Z " fill="#000000" transform="translate(280,487)"/>
<path d="M0 0 C1.65 0 3.3 0 5 0 C5 1.32 5 2.64 5 4 C3.35 4 1.7 4 0 4 C0 2.68 0 1.36 0 0 Z " fill="#000000" transform="translate(369,445)"/>
</svg>
